<svg width="80" height="80" viewBox="0 0 80 80" fill="none" xmlns="http://www.w3.org/2000/svg">
<rect width="80" height="80" rx="10" fill="#C10000"/>
<path d="M48.75 24.5H46.25V22H48.75V24.5ZM48.75 28.25H46.25V25.75H48.75V28.25ZM45 24.5H42.5V22H45V24.5ZM45 28.25H42.5V25.75H45V28.25ZM45 33.25H35V30.75H45V33.25ZM33.75 24.5H31.25V22H33.75V24.5ZM33.75 28.25H31.25V25.75H33.75V28.25ZM35 25.75H37.5V28.25H35V25.75ZM35 22H37.5V24.5H35V22ZM38.75 25.75H41.25V28.25H38.75V25.75ZM38.75 22H41.25V24.5H38.75V22ZM50 18.25H30C28.6125 18.25 27.5 19.3625 27.5 20.75V33.25C27.5 33.913 27.7634 34.5489 28.2322 35.0178C28.7011 35.4866 29.337 35.75 30 35.75H50C50.663 35.75 51.2989 35.4866 51.7678 35.0178C52.2366 34.5489 52.5 33.913 52.5 33.25V20.75C52.5 20.087 52.2366 19.4511 51.7678 18.9822C51.2989 18.5134 50.663 18.25 50 18.25Z" fill="white"/>
<rect x="27.5" y="8.25" width="17.5" height="7.5" fill="white"/>
<rect x="35" y="13.25" width="2.5" height="7.5" fill="white"/>
<rect x="30" y="12" width="10" height="1.25" fill="#C10000"/>
<rect x="28.75" y="10.75" width="15" height="2.5" fill="#C10000"/>
<path d="M30.415 51.6846C30.3376 52.7555 29.9411 53.5986 29.2256 54.2139C28.5146 54.8291 27.5758 55.1367 26.4092 55.1367C25.1331 55.1367 24.1283 54.7083 23.3945 53.8516C22.6654 52.9902 22.3008 51.8099 22.3008 50.3105V49.7021C22.3008 48.7451 22.4694 47.902 22.8066 47.1729C23.1439 46.4437 23.6247 45.8854 24.249 45.498C24.8779 45.1061 25.6071 44.9102 26.4365 44.9102C27.585 44.9102 28.5101 45.2178 29.2119 45.833C29.9137 46.4482 30.3193 47.3118 30.4287 48.4238H28.3779C28.3278 47.7812 28.1478 47.3164 27.8379 47.0293C27.5326 46.7376 27.0654 46.5918 26.4365 46.5918C25.7529 46.5918 25.2402 46.8379 24.8984 47.3301C24.5612 47.8177 24.388 48.5765 24.3789 49.6064V50.3584C24.3789 51.4339 24.5407 52.2201 24.8643 52.7168C25.1924 53.2135 25.7074 53.4619 26.4092 53.4619C27.0426 53.4619 27.5143 53.3184 27.8242 53.0312C28.1387 52.7396 28.3187 52.2907 28.3643 51.6846H30.415ZM33.7168 55H31.7344V44.5H33.7168V55ZM35.043 51.2334C35.043 50.4997 35.1842 49.8457 35.4668 49.2715C35.7493 48.6973 36.1549 48.2529 36.6836 47.9385C37.2168 47.624 37.8343 47.4668 38.5361 47.4668C39.5342 47.4668 40.3477 47.7721 40.9766 48.3828C41.61 48.9935 41.9632 49.8229 42.0361 50.8711L42.0498 51.377C42.0498 52.5117 41.7331 53.4232 41.0996 54.1113C40.4661 54.7949 39.6162 55.1367 38.5498 55.1367C37.4834 55.1367 36.6312 54.7949 35.9932 54.1113C35.3597 53.4277 35.043 52.498 35.043 51.3223V51.2334ZM37.0186 51.377C37.0186 52.0788 37.1507 52.6165 37.415 52.9902C37.6794 53.3594 38.0576 53.5439 38.5498 53.5439C39.0283 53.5439 39.402 53.3617 39.6709 52.9971C39.9398 52.6279 40.0742 52.04 40.0742 51.2334C40.0742 50.5452 39.9398 50.012 39.6709 49.6338C39.402 49.2555 39.0238 49.0664 38.5361 49.0664C38.0531 49.0664 37.6794 49.2555 37.415 49.6338C37.1507 50.0075 37.0186 50.5885 37.0186 51.377ZM47.2725 52.9561C47.2725 52.7145 47.1517 52.5254 46.9102 52.3887C46.6732 52.2474 46.2904 52.1221 45.7617 52.0127C44.0026 51.6436 43.123 50.8962 43.123 49.7705C43.123 49.1143 43.3942 48.5674 43.9365 48.1299C44.4834 47.6878 45.1966 47.4668 46.0762 47.4668C47.015 47.4668 47.7646 47.6878 48.3252 48.1299C48.8903 48.5719 49.1729 49.1462 49.1729 49.8525H47.1973C47.1973 49.57 47.1061 49.3376 46.9238 49.1553C46.7415 48.9684 46.4567 48.875 46.0693 48.875C45.7367 48.875 45.4792 48.9502 45.2969 49.1006C45.1146 49.251 45.0234 49.4424 45.0234 49.6748C45.0234 49.8936 45.126 50.0713 45.3311 50.208C45.5407 50.3402 45.8916 50.4564 46.3838 50.5566C46.876 50.6523 47.2907 50.7617 47.6279 50.8848C48.6715 51.2676 49.1934 51.9307 49.1934 52.874C49.1934 53.5485 48.904 54.0954 48.3252 54.5146C47.7464 54.9294 46.999 55.1367 46.083 55.1367C45.4632 55.1367 44.9118 55.0273 44.4287 54.8086C43.9502 54.5853 43.5742 54.2822 43.3008 53.8994C43.0273 53.512 42.8906 53.0951 42.8906 52.6484H44.7637C44.7819 52.9993 44.9118 53.2682 45.1533 53.4551C45.3949 53.6419 45.7184 53.7354 46.124 53.7354C46.5023 53.7354 46.7871 53.6647 46.9785 53.5234C47.1745 53.3776 47.2725 53.1885 47.2725 52.9561ZM53.876 55.1367C52.7913 55.1367 51.9072 54.804 51.2236 54.1387C50.5446 53.4733 50.2051 52.5869 50.2051 51.4795V51.2881C50.2051 50.5452 50.3486 49.8822 50.6357 49.2988C50.9229 48.7109 51.3285 48.2598 51.8525 47.9453C52.3812 47.6263 52.9827 47.4668 53.6572 47.4668C54.6689 47.4668 55.4642 47.7858 56.043 48.4238C56.6263 49.0618 56.918 49.9665 56.918 51.1377V51.9443H52.208C52.2718 52.4274 52.4632 52.8148 52.7822 53.1064C53.1058 53.3981 53.5137 53.5439 54.0059 53.5439C54.7669 53.5439 55.3617 53.2682 55.79 52.7168L56.7607 53.8037C56.4645 54.223 56.0635 54.5511 55.5576 54.7881C55.0518 55.0205 54.4912 55.1367 53.876 55.1367ZM53.6504 49.0664C53.2585 49.0664 52.9395 49.1986 52.6934 49.4629C52.4518 49.7272 52.2969 50.1055 52.2285 50.5977H54.9766V50.4404C54.9674 50.0029 54.849 49.6657 54.6211 49.4287C54.3932 49.1872 54.0697 49.0664 53.6504 49.0664ZM19.9697 65.4561C19.7008 65.4196 19.4639 65.4014 19.2588 65.4014C18.5114 65.4014 18.0215 65.6543 17.7891 66.1602V71H15.8135V63.6035H17.6797L17.7344 64.4854C18.1309 63.8063 18.68 63.4668 19.3818 63.4668C19.6006 63.4668 19.8057 63.4964 19.9971 63.5557L19.9697 65.4561ZM24.1943 71.1367C23.1097 71.1367 22.2256 70.804 21.542 70.1387C20.863 69.4733 20.5234 68.5869 20.5234 67.4795V67.2881C20.5234 66.5452 20.667 65.8822 20.9541 65.2988C21.2412 64.7109 21.6468 64.2598 22.1709 63.9453C22.6995 63.6263 23.3011 63.4668 23.9756 63.4668C24.9873 63.4668 25.7826 63.7858 26.3613 64.4238C26.9447 65.0618 27.2363 65.9665 27.2363 67.1377V67.9443H22.5264C22.5902 68.4274 22.7816 68.8148 23.1006 69.1064C23.4242 69.3981 23.832 69.5439 24.3242 69.5439C25.0853 69.5439 25.68 69.2682 26.1084 68.7168L27.0791 69.8037C26.7829 70.223 26.3818 70.5511 25.876 70.7881C25.3701 71.0205 24.8096 71.1367 24.1943 71.1367ZM23.9688 65.0664C23.5768 65.0664 23.2578 65.1986 23.0117 65.4629C22.7702 65.7272 22.6152 66.1055 22.5469 66.5977H25.2949V66.4404C25.2858 66.0029 25.1673 65.6657 24.9395 65.4287C24.7116 65.1872 24.388 65.0664 23.9688 65.0664ZM28.0771 67.2471C28.0771 66.1123 28.346 65.1986 28.8838 64.5059C29.4261 63.8132 30.1553 63.4668 31.0713 63.4668C31.8825 63.4668 32.5137 63.7448 32.9648 64.3008L33.0469 63.6035H34.8379V70.7539C34.8379 71.401 34.6898 71.9639 34.3936 72.4424C34.1019 72.9209 33.6895 73.2855 33.1562 73.5361C32.623 73.7868 31.9987 73.9121 31.2832 73.9121C30.7409 73.9121 30.2122 73.8027 29.6973 73.584C29.1823 73.3698 28.7926 73.0918 28.5283 72.75L29.4033 71.5469C29.8955 72.0983 30.4925 72.374 31.1943 72.374C31.7184 72.374 32.1263 72.2327 32.418 71.9502C32.7096 71.6722 32.8555 71.2757 32.8555 70.7607V70.3643C32.3997 70.8792 31.8005 71.1367 31.0576 71.1367C30.1689 71.1367 29.4489 70.7904 28.8975 70.0977C28.3506 69.4004 28.0771 68.4775 28.0771 67.3291V67.2471ZM30.0527 67.3906C30.0527 68.0605 30.1872 68.5869 30.4561 68.9697C30.7249 69.348 31.0941 69.5371 31.5635 69.5371C32.165 69.5371 32.5957 69.3115 32.8555 68.8604V65.75C32.5911 65.2988 32.165 65.0732 31.5771 65.0732C31.1032 65.0732 30.7295 65.2669 30.4561 65.6543C30.1872 66.0417 30.0527 66.6204 30.0527 67.3906ZM38.4473 71H36.4648V63.6035H38.4473V71ZM36.3486 61.6895C36.3486 61.3932 36.4466 61.1494 36.6426 60.958C36.8431 60.7666 37.1143 60.6709 37.4561 60.6709C37.7933 60.6709 38.0622 60.7666 38.2627 60.958C38.4632 61.1494 38.5635 61.3932 38.5635 61.6895C38.5635 61.9902 38.4609 62.2363 38.2559 62.4277C38.0553 62.6191 37.7887 62.7148 37.4561 62.7148C37.1234 62.7148 36.8545 62.6191 36.6494 62.4277C36.4489 62.2363 36.3486 61.9902 36.3486 61.6895ZM44.0869 68.9561C44.0869 68.7145 43.9661 68.5254 43.7246 68.3887C43.4876 68.2474 43.1048 68.1221 42.5762 68.0127C40.8171 67.6436 39.9375 66.8962 39.9375 65.7705C39.9375 65.1143 40.2087 64.5674 40.751 64.1299C41.2979 63.6878 42.0111 63.4668 42.8906 63.4668C43.8294 63.4668 44.5791 63.6878 45.1396 64.1299C45.7048 64.5719 45.9873 65.1462 45.9873 65.8525H44.0117C44.0117 65.57 43.9206 65.3376 43.7383 65.1553C43.556 64.9684 43.2712 64.875 42.8838 64.875C42.5511 64.875 42.2936 64.9502 42.1113 65.1006C41.929 65.251 41.8379 65.4424 41.8379 65.6748C41.8379 65.8936 41.9404 66.0713 42.1455 66.208C42.3551 66.3402 42.7061 66.4564 43.1982 66.5566C43.6904 66.6523 44.1051 66.7617 44.4424 66.8848C45.486 67.2676 46.0078 67.9307 46.0078 68.874C46.0078 69.5485 45.7184 70.0954 45.1396 70.5146C44.5609 70.9294 43.8135 71.1367 42.8975 71.1367C42.2777 71.1367 41.7262 71.0273 41.2432 70.8086C40.7646 70.5853 40.3887 70.2822 40.1152 69.8994C39.8418 69.512 39.7051 69.0951 39.7051 68.6484H41.5781C41.5964 68.9993 41.7262 69.2682 41.9678 69.4551C42.2093 69.6419 42.5329 69.7354 42.9385 69.7354C43.3167 69.7354 43.6016 69.6647 43.793 69.5234C43.9889 69.3776 44.0869 69.1885 44.0869 68.9561ZM49.6514 61.7852V63.6035H50.916V65.0527H49.6514V68.7441C49.6514 69.0176 49.7038 69.2135 49.8086 69.332C49.9134 69.4505 50.1139 69.5098 50.4102 69.5098C50.6289 69.5098 50.8226 69.4938 50.9912 69.4619V70.959C50.6038 71.0775 50.2051 71.1367 49.7949 71.1367C48.4095 71.1367 47.7031 70.4372 47.6758 69.0381V65.0527H46.5957V63.6035H47.6758V61.7852H49.6514ZM55.4209 71.1367C54.3363 71.1367 53.4521 70.804 52.7686 70.1387C52.0895 69.4733 51.75 68.5869 51.75 67.4795V67.2881C51.75 66.5452 51.8936 65.8822 52.1807 65.2988C52.4678 64.7109 52.8734 64.2598 53.3975 63.9453C53.9261 63.6263 54.5277 63.4668 55.2021 63.4668C56.2139 63.4668 57.0091 63.7858 57.5879 64.4238C58.1712 65.0618 58.4629 65.9665 58.4629 67.1377V67.9443H53.7529C53.8167 68.4274 54.0081 68.8148 54.3271 69.1064C54.6507 69.3981 55.0586 69.5439 55.5508 69.5439C56.3118 69.5439 56.9066 69.2682 57.335 68.7168L58.3057 69.8037C58.0094 70.223 57.6084 70.5511 57.1025 70.7881C56.5967 71.0205 56.0361 71.1367 55.4209 71.1367ZM55.1953 65.0664C54.8034 65.0664 54.4844 65.1986 54.2383 65.4629C53.9967 65.7272 53.8418 66.1055 53.7734 66.5977H56.5215V66.4404C56.5124 66.0029 56.3939 65.6657 56.166 65.4287C55.9382 65.1872 55.6146 65.0664 55.1953 65.0664ZM63.7471 65.4561C63.4782 65.4196 63.2412 65.4014 63.0361 65.4014C62.2887 65.4014 61.7988 65.6543 61.5664 66.1602V71H59.5908V63.6035H61.457L61.5117 64.4854C61.9082 63.8063 62.4574 63.4668 63.1592 63.4668C63.3779 63.4668 63.583 63.4964 63.7744 63.5557L63.7471 65.4561Z" fill="white"/>
</svg>
