<svg width="55" height="58" viewBox="0 0 55 58" fill="none" xmlns="http://www.w3.org/2000/svg">
<path d="M3.48535 55V45.0469H6.4248C7.30436 45.0469 8.08366 45.2428 8.7627 45.6348C9.44629 46.0267 9.97493 46.5827 10.3486 47.3027C10.7223 48.0228 10.9092 48.8477 10.9092 49.7773V50.2764C10.9092 51.2197 10.7201 52.0492 10.3418 52.7646C9.9681 53.4801 9.43262 54.0316 8.73535 54.4189C8.04264 54.8063 7.2474 55 6.34961 55H3.48535ZM5.21484 46.4414V53.6191H6.34277C7.24967 53.6191 7.94466 53.3366 8.42773 52.7715C8.91536 52.2018 9.16374 51.3861 9.17285 50.3242V49.7705C9.17285 48.6904 8.93815 47.8656 8.46875 47.2959C7.99935 46.7262 7.31803 46.4414 6.4248 46.4414H5.21484ZM15.7285 55.1367C14.6758 55.1367 13.8213 54.8063 13.165 54.1455C12.5133 53.4801 12.1875 52.596 12.1875 51.4932V51.2881C12.1875 50.5498 12.3288 49.8913 12.6113 49.3125C12.8984 48.7292 13.2995 48.2757 13.8145 47.9521C14.3294 47.6286 14.9036 47.4668 15.5371 47.4668C16.5443 47.4668 17.3213 47.7881 17.8682 48.4307C18.4196 49.0732 18.6953 49.9824 18.6953 51.1582V51.8281H13.8623C13.9124 52.4388 14.1152 52.9219 14.4707 53.2773C14.8307 53.6328 15.2819 53.8105 15.8242 53.8105C16.5853 53.8105 17.2051 53.5029 17.6836 52.8877L18.5791 53.7422C18.2829 54.1842 17.8864 54.5283 17.3896 54.7744C16.8975 55.016 16.3438 55.1367 15.7285 55.1367ZM15.5303 48.7998C15.0745 48.7998 14.7054 48.9593 14.4229 49.2783C14.1449 49.5973 13.9671 50.0417 13.8896 50.6113H17.0547V50.4883C17.0182 49.9323 16.8701 49.513 16.6104 49.2305C16.3506 48.9434 15.9906 48.7998 15.5303 48.7998ZM21.7578 55H20.0967V44.5H21.7578V55ZM25.3398 55H23.6787V47.6035H25.3398V55ZM23.5762 45.6826C23.5762 45.4274 23.6559 45.2155 23.8154 45.0469C23.9795 44.8783 24.2119 44.7939 24.5127 44.7939C24.8135 44.7939 25.0459 44.8783 25.21 45.0469C25.374 45.2155 25.4561 45.4274 25.4561 45.6826C25.4561 45.9333 25.374 46.1429 25.21 46.3115C25.0459 46.4756 24.8135 46.5576 24.5127 46.5576C24.2119 46.5576 23.9795 46.4756 23.8154 46.3115C23.6559 46.1429 23.5762 45.9333 23.5762 45.6826ZM29.7627 52.8945L31.3281 47.6035H33.0439L30.4805 55H29.0381L26.4541 47.6035H28.1768L29.7627 52.8945ZM37.248 55.1367C36.1953 55.1367 35.3408 54.8063 34.6846 54.1455C34.0329 53.4801 33.707 52.596 33.707 51.4932V51.2881C33.707 50.5498 33.8483 49.8913 34.1309 49.3125C34.418 48.7292 34.819 48.2757 35.334 47.9521C35.849 47.6286 36.4232 47.4668 37.0566 47.4668C38.0638 47.4668 38.8408 47.7881 39.3877 48.4307C39.9391 49.0732 40.2148 49.9824 40.2148 51.1582V51.8281H35.3818C35.432 52.4388 35.6348 52.9219 35.9902 53.2773C36.3503 53.6328 36.8014 53.8105 37.3438 53.8105C38.1048 53.8105 38.7246 53.5029 39.2031 52.8877L40.0986 53.7422C39.8024 54.1842 39.4059 54.5283 38.9092 54.7744C38.417 55.016 37.8633 55.1367 37.248 55.1367ZM37.0498 48.7998C36.5941 48.7998 36.2249 48.9593 35.9424 49.2783C35.6644 49.5973 35.4867 50.0417 35.4092 50.6113H38.5742V50.4883C38.5378 49.9323 38.3896 49.513 38.1299 49.2305C37.8701 48.9434 37.5101 48.7998 37.0498 48.7998ZM45.3828 49.1211C45.1641 49.0846 44.9385 49.0664 44.7061 49.0664C43.945 49.0664 43.4323 49.3581 43.168 49.9414V55H41.5068V47.6035H43.0928L43.1338 48.4307C43.5348 47.7881 44.0908 47.4668 44.8018 47.4668C45.0387 47.4668 45.2347 47.4987 45.3896 47.5625L45.3828 49.1211ZM49.1426 52.6211L50.6465 47.6035H52.417L49.4775 56.1211C49.0264 57.3652 48.2607 57.9873 47.1807 57.9873C46.9391 57.9873 46.6725 57.9463 46.3809 57.8643V56.5791L46.6953 56.5996C47.1146 56.5996 47.429 56.5221 47.6387 56.3672C47.8529 56.2168 48.0215 55.9616 48.1445 55.6016L48.3838 54.9658L45.7861 47.6035H47.5771L49.1426 52.6211Z" fill="white"/>
<path d="M3.48535 55V45.0469H6.4248C7.30436 45.0469 8.08366 45.2428 8.7627 45.6348C9.44629 46.0267 9.97493 46.5827 10.3486 47.3027C10.7223 48.0228 10.9092 48.8477 10.9092 49.7773V50.2764C10.9092 51.2197 10.7201 52.0492 10.3418 52.7646C9.9681 53.4801 9.43262 54.0316 8.73535 54.4189C8.04264 54.8063 7.2474 55 6.34961 55H3.48535ZM5.21484 46.4414V53.6191H6.34277C7.24967 53.6191 7.94466 53.3366 8.42773 52.7715C8.91536 52.2018 9.16374 51.3861 9.17285 50.3242V49.7705C9.17285 48.6904 8.93815 47.8656 8.46875 47.2959C7.99935 46.7262 7.31803 46.4414 6.4248 46.4414H5.21484ZM15.7285 55.1367C14.6758 55.1367 13.8213 54.8063 13.165 54.1455C12.5133 53.4801 12.1875 52.596 12.1875 51.4932V51.2881C12.1875 50.5498 12.3288 49.8913 12.6113 49.3125C12.8984 48.7292 13.2995 48.2757 13.8145 47.9521C14.3294 47.6286 14.9036 47.4668 15.5371 47.4668C16.5443 47.4668 17.3213 47.7881 17.8682 48.4307C18.4196 49.0732 18.6953 49.9824 18.6953 51.1582V51.8281H13.8623C13.9124 52.4388 14.1152 52.9219 14.4707 53.2773C14.8307 53.6328 15.2819 53.8105 15.8242 53.8105C16.5853 53.8105 17.2051 53.5029 17.6836 52.8877L18.5791 53.7422C18.2829 54.1842 17.8864 54.5283 17.3896 54.7744C16.8975 55.016 16.3438 55.1367 15.7285 55.1367ZM15.5303 48.7998C15.0745 48.7998 14.7054 48.9593 14.4229 49.2783C14.1449 49.5973 13.9671 50.0417 13.8896 50.6113H17.0547V50.4883C17.0182 49.9323 16.8701 49.513 16.6104 49.2305C16.3506 48.9434 15.9906 48.7998 15.5303 48.7998ZM21.7578 55H20.0967V44.5H21.7578V55ZM25.3398 55H23.6787V47.6035H25.3398V55ZM23.5762 45.6826C23.5762 45.4274 23.6559 45.2155 23.8154 45.0469C23.9795 44.8783 24.2119 44.7939 24.5127 44.7939C24.8135 44.7939 25.0459 44.8783 25.21 45.0469C25.374 45.2155 25.4561 45.4274 25.4561 45.6826C25.4561 45.9333 25.374 46.1429 25.21 46.3115C25.0459 46.4756 24.8135 46.5576 24.5127 46.5576C24.2119 46.5576 23.9795 46.4756 23.8154 46.3115C23.6559 46.1429 23.5762 45.9333 23.5762 45.6826ZM29.7627 52.8945L31.3281 47.6035H33.0439L30.4805 55H29.0381L26.4541 47.6035H28.1768L29.7627 52.8945ZM37.248 55.1367C36.1953 55.1367 35.3408 54.8063 34.6846 54.1455C34.0329 53.4801 33.707 52.596 33.707 51.4932V51.2881C33.707 50.5498 33.8483 49.8913 34.1309 49.3125C34.418 48.7292 34.819 48.2757 35.334 47.9521C35.849 47.6286 36.4232 47.4668 37.0566 47.4668C38.0638 47.4668 38.8408 47.7881 39.3877 48.4307C39.9391 49.0732 40.2148 49.9824 40.2148 51.1582V51.8281H35.3818C35.432 52.4388 35.6348 52.9219 35.9902 53.2773C36.3503 53.6328 36.8014 53.8105 37.3438 53.8105C38.1048 53.8105 38.7246 53.5029 39.2031 52.8877L40.0986 53.7422C39.8024 54.1842 39.4059 54.5283 38.9092 54.7744C38.417 55.016 37.8633 55.1367 37.248 55.1367ZM37.0498 48.7998C36.5941 48.7998 36.2249 48.9593 35.9424 49.2783C35.6644 49.5973 35.4867 50.0417 35.4092 50.6113H38.5742V50.4883C38.5378 49.9323 38.3896 49.513 38.1299 49.2305C37.8701 48.9434 37.5101 48.7998 37.0498 48.7998ZM45.3828 49.1211C45.1641 49.0846 44.9385 49.0664 44.7061 49.0664C43.945 49.0664 43.4323 49.3581 43.168 49.9414V55H41.5068V47.6035H43.0928L43.1338 48.4307C43.5348 47.7881 44.0908 47.4668 44.8018 47.4668C45.0387 47.4668 45.2347 47.4987 45.3896 47.5625L45.3828 49.1211ZM49.1426 52.6211L50.6465 47.6035H52.417L49.4775 56.1211C49.0264 57.3652 48.2607 57.9873 47.1807 57.9873C46.9391 57.9873 46.6725 57.9463 46.3809 57.8643V56.5791L46.6953 56.5996C47.1146 56.5996 47.429 56.5221 47.6387 56.3672C47.8529 56.2168 48.0215 55.9616 48.1445 55.6016L48.3838 54.9658L45.7861 47.6035H47.5771L49.1426 52.6211Z" fill="white"/>
<path d="M35.2072 42.3461C34.9045 42.3539 34.6026 42.273 34.338 42.1258C32.7178 41.2246 31.1064 40.3155 29.4847 39.4269C25.142 37.033 20.7993 34.6511 16.4566 32.2813C15.9514 32.0046 15.6988 31.6197 15.7228 31.0303C15.7469 30.5852 15.6988 30.1401 15.7349 29.695C15.771 29.2138 15.6146 29.0454 15.1093 29.0574C12.4989 29.0815 9.8885 29.0694 7.27809 29.0694C7.09764 29.0694 6.9172 29.0815 6.74879 29.0574C6.15934 29.0093 5.75033 28.5883 5.71424 28.0349C5.67816 27.4575 6.02701 26.9883 6.5924 26.8801C6.90517 26.8199 7.22997 26.8079 7.54274 26.8079C10.0449 26.8079 12.547 26.7958 15.0612 26.8079C15.5544 26.8079 15.7469 26.6756 15.7349 26.1462C15.6988 24.7628 15.7108 23.3794 15.7349 21.9961C15.7469 21.5389 15.6146 21.3825 15.1334 21.3825C13.341 21.4066 11.5486 21.3946 9.75618 21.3825C8.87802 21.3825 8.32466 20.6487 8.61337 19.8909C8.76975 19.4819 9.08252 19.2413 9.52761 19.1811C10.2855 19.0729 11.0554 19.133 11.8132 19.121C12.932 19.109 14.0507 19.109 15.1695 19.121C15.5785 19.133 15.7469 18.9887 15.7349 18.5676C15.7108 17.7135 15.6988 16.8594 15.7349 16.0174C15.7589 15.5482 15.5905 15.4159 15.1334 15.4159C11.3802 15.4279 7.63897 15.4279 3.88575 15.4279C2.91136 15.4279 2.37003 15.043 2.34597 14.3452C2.32191 13.6235 2.87527 13.1664 3.87372 13.1664C7.5668 13.1543 11.2599 13.1664 14.9529 13.1664C15.7228 13.1664 15.7228 13.1664 15.7228 12.4085C15.7228 12.1799 15.7469 11.9393 15.7228 11.7228C15.5785 10.7484 16.0236 10.2071 16.8656 9.74996C22.5917 6.64633 28.3058 3.50662 33.9957 0.342842C34.8258 -0.114281 35.4874 -0.114281 36.3174 0.342842C41.9954 3.49459 47.6974 6.62227 53.4114 9.7259C54.2655 10.183 54.6625 10.7123 54.6144 11.7228C54.5302 13.7558 54.5903 15.8008 54.5903 17.8459C54.5903 18.3391 54.3858 18.7 53.9408 18.9165C53.5077 19.121 53.1107 19.0247 52.7498 18.736C52.4491 18.4954 52.3769 18.1466 52.3889 17.7737C52.3889 16.3542 52.3769 14.9347 52.401 13.5152C52.413 13.0461 52.2807 13.01 51.8957 13.2265C50.5965 13.9603 49.2853 14.6821 47.9741 15.3798C47.6252 15.5723 47.517 15.8129 47.517 16.1858C47.529 17.7135 47.5049 19.2413 47.529 20.769C47.541 21.587 47.2283 22.1284 46.4824 22.5013C45.3516 23.0667 44.269 23.7163 43.1623 24.3057C42.1398 24.8591 41.3217 24.3538 41.3217 23.1749C41.3097 21.984 41.3097 20.7931 41.3217 19.6022C41.3338 19.1811 41.2616 19.0488 40.8285 19.2894C39.4331 20.0713 38.0377 20.8412 36.6302 21.5991C36.3656 21.7434 36.2573 21.9239 36.2573 22.2366C36.2693 27.7702 36.2693 33.3159 36.2573 38.8495C36.2573 39.3066 36.3896 39.3066 36.7385 39.1141C41.7187 36.3714 46.699 33.6407 51.6912 30.922C52.2085 30.6453 52.4371 30.3446 52.401 29.7311C52.3408 28.6725 52.3769 27.6018 52.3889 26.5312C52.3889 25.7974 52.8581 25.2922 53.4957 25.2922C54.1212 25.2922 54.5903 25.8094 54.5903 26.5432C54.6024 28.0108 54.5783 29.4905 54.6024 30.9581C54.6144 31.5836 54.3618 31.9926 53.8205 32.2813C49.8748 34.4346 45.9411 36.5999 42.0074 38.7653C39.9772 39.883 37.9469 41.0117 35.9166 42.1408C35.6971 42.2629 35.4583 42.3396 35.2072 42.3461ZM34.0679 30.537C34.0679 27.8063 34.0679 25.0756 34.0679 22.3449C34.0679 21.996 33.9837 21.7675 33.6469 21.575C28.5945 18.8202 23.5661 16.0534 18.5257 13.2866C17.9483 12.9619 17.9363 12.9739 17.9363 13.6235C17.9363 18.9646 17.9483 24.3057 17.9242 29.6469C17.9242 30.3085 18.1287 30.6453 18.7062 30.9581C23.6623 33.6527 28.6065 36.3714 33.5506 39.0901C34.0559 39.3667 34.0679 39.3547 34.0679 38.7893C34.0679 36.0345 34.0679 33.2798 34.0679 30.537ZM19.8327 10.7121C19.5273 10.8875 19.4618 11.2405 19.7768 11.398C24.757 14.1287 29.7252 16.8594 34.6935 19.6022C35.0543 19.8067 35.331 19.7706 35.6678 19.5781C36.943 18.8563 38.2422 18.1586 39.5293 17.4489C39.6737 17.3647 39.9263 17.3406 39.9263 17.1481C39.9263 16.9557 39.6857 16.9196 39.5293 16.8354C34.513 14.0806 29.4847 11.3258 24.4683 8.55903C24.1676 8.39062 23.9511 8.43874 23.6864 8.58309C22.5677 9.20863 21.4489 9.81011 20.3302 10.4236C20.1629 10.5217 19.9984 10.6169 19.8327 10.7121ZM30.6725 4.76686C30.5745 4.82087 30.5464 4.97232 30.6395 5.03437C35.7881 7.86132 40.9368 10.6883 46.0854 13.5272C46.314 13.6596 46.4945 13.6475 46.723 13.5152C48.0222 12.7934 49.3334 12.0837 50.6446 11.3619C50.777 11.2897 50.9935 11.2537 50.9935 11.0732C50.9815 10.9048 50.7649 10.8807 50.6326 10.7965C48.6477 9.70184 46.6508 8.60715 44.6539 7.51246C41.6345 5.85238 38.6151 4.1923 35.5957 2.54425C35.3551 2.41193 35.1385 2.30366 34.8498 2.47207C33.4938 3.21903 32.1049 3.97697 30.6725 4.76686ZM43.8937 14.9995C43.9055 14.9777 43.9022 14.946 43.8894 14.9249C43.7739 14.7356 43.5488 14.6762 43.3668 14.5738C38.591 11.9514 33.8033 9.35298 29.0516 6.68242C28.3058 6.26139 27.7043 6.20124 27.0547 6.73054C26.9224 6.83881 26.6697 6.86286 26.6457 7.04331C26.6216 7.27187 26.8983 7.30796 27.0547 7.39217C29.617 8.81165 32.1793 10.2191 34.7536 11.6266C37.1836 12.9619 39.6135 14.2851 42.0315 15.6204C42.3583 15.7955 43.6481 15.3815 43.8561 15.0491C43.8678 15.0303 43.8832 15.0189 43.8937 14.9995ZM45.2554 18.8202C45.2554 18.6037 45.2554 18.3992 45.2554 18.1827C45.2554 16.8715 45.2554 16.8715 44.1006 17.5211C43.86 17.6534 43.5953 17.7737 43.5953 18.1346C43.6074 19.109 43.5953 20.0834 43.5953 21.0577C43.5953 21.3344 43.6675 21.4427 43.9803 21.3224C45.1953 20.8051 45.2554 20.7329 45.2554 19.4217C45.2554 19.2052 45.2554 19.0127 45.2554 18.8202Z" fill="white"/>
<path d="M35.2072 42.3461C34.9045 42.3539 34.6026 42.273 34.338 42.1258C32.7178 41.2246 31.1064 40.3155 29.4847 39.4269C25.142 37.033 20.7993 34.6511 16.4566 32.2813C15.9514 32.0046 15.6988 31.6197 15.7228 31.0303C15.7469 30.5852 15.6988 30.1401 15.7349 29.695C15.771 29.2138 15.6146 29.0454 15.1093 29.0574C12.4989 29.0815 9.8885 29.0694 7.27809 29.0694C7.09764 29.0694 6.9172 29.0815 6.74879 29.0574C6.15934 29.0093 5.75033 28.5883 5.71424 28.0349C5.67816 27.4575 6.02701 26.9883 6.5924 26.8801C6.90517 26.8199 7.22997 26.8079 7.54274 26.8079C10.0449 26.8079 12.547 26.7958 15.0612 26.8079C15.5544 26.8079 15.7469 26.6756 15.7349 26.1462C15.6988 24.7628 15.7108 23.3794 15.7349 21.9961C15.7469 21.5389 15.6146 21.3825 15.1334 21.3825C13.341 21.4066 11.5486 21.3946 9.75618 21.3825C8.87802 21.3825 8.32466 20.6487 8.61337 19.8909C8.76975 19.4819 9.08252 19.2413 9.52761 19.1811C10.2855 19.0729 11.0554 19.133 11.8132 19.121C12.932 19.109 14.0507 19.109 15.1695 19.121C15.5785 19.133 15.7469 18.9887 15.7349 18.5676C15.7108 17.7135 15.6988 16.8594 15.7349 16.0174C15.7589 15.5482 15.5905 15.4159 15.1334 15.4159C11.3802 15.4279 7.63897 15.4279 3.88575 15.4279C2.91136 15.4279 2.37003 15.043 2.34597 14.3452C2.32191 13.6235 2.87527 13.1664 3.87372 13.1664C7.5668 13.1543 11.2599 13.1664 14.9529 13.1664C15.7228 13.1664 15.7228 13.1664 15.7228 12.4085C15.7228 12.1799 15.7469 11.9393 15.7228 11.7228C15.5785 10.7484 16.0236 10.2071 16.8656 9.74996C22.5917 6.64633 28.3058 3.50662 33.9957 0.342842C34.8258 -0.114281 35.4874 -0.114281 36.3174 0.342842C41.9954 3.49459 47.6974 6.62227 53.4114 9.7259C54.2655 10.183 54.6625 10.7123 54.6144 11.7228C54.5302 13.7558 54.5903 15.8008 54.5903 17.8459C54.5903 18.3391 54.3858 18.7 53.9408 18.9165C53.5077 19.121 53.1107 19.0247 52.7498 18.736C52.4491 18.4954 52.3769 18.1466 52.3889 17.7737C52.3889 16.3542 52.3769 14.9347 52.401 13.5152C52.413 13.0461 52.2807 13.01 51.8957 13.2265C50.5965 13.9603 49.2853 14.6821 47.9741 15.3798C47.6252 15.5723 47.517 15.8129 47.517 16.1858C47.529 17.7135 47.5049 19.2413 47.529 20.769C47.541 21.587 47.2283 22.1284 46.4824 22.5013C45.3516 23.0667 44.269 23.7163 43.1623 24.3057C42.1398 24.8591 41.3217 24.3538 41.3217 23.1749C41.3097 21.984 41.3097 20.7931 41.3217 19.6022C41.3338 19.1811 41.2616 19.0488 40.8285 19.2894C39.4331 20.0713 38.0377 20.8412 36.6302 21.5991C36.3656 21.7434 36.2573 21.9239 36.2573 22.2366C36.2693 27.7702 36.2693 33.3159 36.2573 38.8495C36.2573 39.3066 36.3896 39.3066 36.7385 39.1141C41.7187 36.3714 46.699 33.6407 51.6912 30.922C52.2085 30.6453 52.4371 30.3446 52.401 29.7311C52.3408 28.6725 52.3769 27.6018 52.3889 26.5312C52.3889 25.7974 52.8581 25.2922 53.4957 25.2922C54.1212 25.2922 54.5903 25.8094 54.5903 26.5432C54.6024 28.0108 54.5783 29.4905 54.6024 30.9581C54.6144 31.5836 54.3618 31.9926 53.8205 32.2813C49.8748 34.4346 45.9411 36.5999 42.0074 38.7653C39.9772 39.883 37.9469 41.0117 35.9166 42.1408C35.6971 42.2629 35.4583 42.3396 35.2072 42.3461ZM34.0679 30.537C34.0679 27.8063 34.0679 25.0756 34.0679 22.3449C34.0679 21.996 33.9837 21.7675 33.6469 21.575C28.5945 18.8202 23.5661 16.0534 18.5257 13.2866C17.9483 12.9619 17.9363 12.9739 17.9363 13.6235C17.9363 18.9646 17.9483 24.3057 17.9242 29.6469C17.9242 30.3085 18.1287 30.6453 18.7062 30.9581C23.6623 33.6527 28.6065 36.3714 33.5506 39.0901C34.0559 39.3667 34.0679 39.3547 34.0679 38.7893C34.0679 36.0345 34.0679 33.2798 34.0679 30.537ZM19.8327 10.7121C19.5273 10.8875 19.4618 11.2405 19.7768 11.398C24.757 14.1287 29.7252 16.8594 34.6935 19.6022C35.0543 19.8067 35.331 19.7706 35.6678 19.5781C36.943 18.8563 38.2422 18.1586 39.5293 17.4489C39.6737 17.3647 39.9263 17.3406 39.9263 17.1481C39.9263 16.9557 39.6857 16.9196 39.5293 16.8354C34.513 14.0806 29.4847 11.3258 24.4683 8.55903C24.1676 8.39062 23.9511 8.43874 23.6864 8.58309C22.5677 9.20863 21.4489 9.81011 20.3302 10.4236C20.1629 10.5217 19.9984 10.6169 19.8327 10.7121ZM30.6725 4.76686C30.5745 4.82087 30.5464 4.97232 30.6395 5.03437C35.7881 7.86132 40.9368 10.6883 46.0854 13.5272C46.314 13.6596 46.4945 13.6475 46.723 13.5152C48.0222 12.7934 49.3334 12.0837 50.6446 11.3619C50.777 11.2897 50.9935 11.2537 50.9935 11.0732C50.9815 10.9048 50.7649 10.8807 50.6326 10.7965C48.6477 9.70184 46.6508 8.60715 44.6539 7.51246C41.6345 5.85238 38.6151 4.1923 35.5957 2.54425C35.3551 2.41193 35.1385 2.30366 34.8498 2.47207C33.4938 3.21903 32.1049 3.97697 30.6725 4.76686ZM43.8937 14.9995C43.9055 14.9777 43.9022 14.946 43.8894 14.9249C43.7739 14.7356 43.5488 14.6762 43.3668 14.5738C38.591 11.9514 33.8033 9.35298 29.0516 6.68242C28.3058 6.26139 27.7043 6.20124 27.0547 6.73054C26.9224 6.83881 26.6697 6.86286 26.6457 7.04331C26.6216 7.27187 26.8983 7.30796 27.0547 7.39217C29.617 8.81165 32.1793 10.2191 34.7536 11.6266C37.1836 12.9619 39.6135 14.2851 42.0315 15.6204C42.3583 15.7955 43.6481 15.3815 43.8561 15.0491C43.8678 15.0303 43.8832 15.0189 43.8937 14.9995ZM45.2554 18.8202C45.2554 18.6037 45.2554 18.3992 45.2554 18.1827C45.2554 16.8715 45.2554 16.8715 44.1006 17.5211C43.86 17.6534 43.5953 17.7737 43.5953 18.1346C43.6074 19.109 43.5953 20.0834 43.5953 21.0577C43.5953 21.3344 43.6675 21.4427 43.9803 21.3224C45.1953 20.8051 45.2554 20.7329 45.2554 19.4217C45.2554 19.2052 45.2554 19.0127 45.2554 18.8202Z" fill="white"/>
<path d="M0 27.9232C0 27.6699 0.0508239 27.4129 0.22621 27.2302C0.481189 26.9646 0.81757 26.838 1.21499 26.82C1.73226 26.7959 2.2375 26.7839 2.75477 26.8681C3.32016 26.9643 3.71713 27.4335 3.71713 27.9748C3.7051 28.5282 3.26001 29.0214 2.67056 29.0575C2.10517 29.0815 1.53978 29.0695 0.974394 29.0575C0.689913 29.05 0.475316 28.9307 0.295812 28.7576C0.076421 28.546 0 28.228 0 27.9232Z" fill="white"/>
<path d="M0 27.9232C0 27.6699 0.0508239 27.4129 0.22621 27.2302C0.481189 26.9646 0.81757 26.838 1.21499 26.82C1.73226 26.7959 2.2375 26.7839 2.75477 26.8681C3.32016 26.9643 3.71713 27.4335 3.71713 27.9748C3.7051 28.5282 3.26001 29.0214 2.67056 29.0575C2.10517 29.0815 1.53978 29.0695 0.974394 29.0575C0.689913 29.05 0.475316 28.9307 0.295812 28.7576C0.076421 28.546 0 28.228 0 27.9232Z" fill="white"/>
<path d="M5.41332 19.1931C6.05088 19.2051 6.53206 19.6863 6.52004 20.3118C6.50801 20.9013 6.01479 21.3825 5.41332 21.3945C4.79981 21.3945 4.27051 20.8893 4.27051 20.2878C4.27051 19.6743 4.78778 19.1811 5.41332 19.1931Z" fill="white"/>
<path d="M5.41332 19.1931C6.05088 19.2051 6.53206 19.6863 6.52004 20.3118C6.50801 20.9013 6.01479 21.3825 5.41332 21.3945C4.79981 21.3945 4.27051 20.8893 4.27051 20.2878C4.27051 19.6743 4.78778 19.1811 5.41332 19.1931Z" fill="white"/>
</svg>
