<svg width="45" height="49" viewBox="0 0 45 49" fill="none" xmlns="http://www.w3.org/2000/svg">
<path d="M2.85352 46H1.13086V36.0469H2.85352V46ZM6.36035 38.6035L6.4082 39.458C6.95508 38.7972 7.67285 38.4668 8.56152 38.4668C10.1019 38.4668 10.8857 39.3486 10.9131 41.1123V46H9.25195V41.208C9.25195 40.7386 9.14941 40.3923 8.94434 40.1689C8.74382 39.9411 8.41341 39.8271 7.95312 39.8271C7.2832 39.8271 6.78418 40.1302 6.45605 40.7363V46H4.79492V38.6035H6.36035ZM15.2197 43.8945L16.7852 38.6035H18.501L15.9375 46H14.4951L11.9111 38.6035H13.6338L15.2197 43.8945ZM19.123 42.2334C19.123 41.5088 19.2666 40.8571 19.5537 40.2783C19.8408 39.695 20.2441 39.2484 20.7637 38.9385C21.2832 38.624 21.8802 38.4668 22.5547 38.4668C23.5527 38.4668 24.3617 38.7881 24.9814 39.4307C25.6058 40.0732 25.943 40.9255 25.9932 41.9873L26 42.377C26 43.1061 25.8587 43.7578 25.5762 44.332C25.2982 44.9062 24.8971 45.3506 24.373 45.665C23.8535 45.9795 23.252 46.1367 22.5684 46.1367C21.5247 46.1367 20.6885 45.7904 20.0596 45.0977C19.4352 44.4004 19.123 43.473 19.123 42.3154V42.2334ZM20.7842 42.377C20.7842 43.138 20.9414 43.735 21.2559 44.168C21.5703 44.5964 22.0078 44.8105 22.5684 44.8105C23.1289 44.8105 23.5641 44.5918 23.874 44.1543C24.1885 43.7168 24.3457 43.0765 24.3457 42.2334C24.3457 41.486 24.1839 40.8936 23.8604 40.4561C23.5413 40.0186 23.1061 39.7998 22.5547 39.7998C22.0124 39.7998 21.5817 40.0163 21.2627 40.4492C20.9437 40.8776 20.7842 41.5202 20.7842 42.377ZM29.1719 46H27.5107V38.6035H29.1719V46ZM27.4082 36.6826C27.4082 36.4274 27.488 36.2155 27.6475 36.0469C27.8115 35.8783 28.0439 35.7939 28.3447 35.7939C28.6455 35.7939 28.8779 35.8783 29.042 36.0469C29.2061 36.2155 29.2881 36.4274 29.2881 36.6826C29.2881 36.9333 29.2061 37.1429 29.042 37.3115C28.8779 37.4756 28.6455 37.5576 28.3447 37.5576C28.0439 37.5576 27.8115 37.4756 27.6475 37.3115C27.488 37.1429 27.4082 36.9333 27.4082 36.6826ZM34.0254 44.8105C34.4401 44.8105 34.7842 44.6898 35.0576 44.4482C35.3311 44.2067 35.4769 43.9082 35.4951 43.5527H37.0605C37.0423 44.013 36.8988 44.4437 36.6299 44.8447C36.361 45.2412 35.9964 45.5557 35.5361 45.7881C35.0758 46.0205 34.5791 46.1367 34.0459 46.1367C33.0114 46.1367 32.1911 45.8018 31.585 45.1318C30.9788 44.4619 30.6758 43.5368 30.6758 42.3564V42.1855C30.6758 41.0599 30.9766 40.1598 31.5781 39.4854C32.1797 38.8063 33 38.4668 34.0391 38.4668C34.9186 38.4668 35.6341 38.7243 36.1855 39.2393C36.7415 39.7497 37.0332 40.4219 37.0605 41.2559H35.4951C35.4769 40.832 35.3311 40.4834 35.0576 40.21C34.7887 39.9365 34.4447 39.7998 34.0254 39.7998C33.4876 39.7998 33.0729 39.9958 32.7812 40.3877C32.4896 40.7751 32.3415 41.3652 32.3369 42.1582V42.4248C32.3369 43.2269 32.4805 43.8262 32.7676 44.2227C33.0592 44.6146 33.4785 44.8105 34.0254 44.8105ZM41.5723 46.1367C40.5195 46.1367 39.665 45.8063 39.0088 45.1455C38.3571 44.4801 38.0312 43.596 38.0312 42.4932V42.2881C38.0312 41.5498 38.1725 40.8913 38.4551 40.3125C38.7422 39.7292 39.1432 39.2757 39.6582 38.9521C40.1732 38.6286 40.7474 38.4668 41.3809 38.4668C42.388 38.4668 43.165 38.7881 43.7119 39.4307C44.2633 40.0732 44.5391 40.9824 44.5391 42.1582V42.8281H39.7061C39.7562 43.4388 39.959 43.9219 40.3145 44.2773C40.6745 44.6328 41.1257 44.8105 41.668 44.8105C42.429 44.8105 43.0488 44.5029 43.5273 43.8877L44.4229 44.7422C44.1266 45.1842 43.7301 45.5283 43.2334 45.7744C42.7412 46.016 42.1875 46.1367 41.5723 46.1367ZM41.374 39.7998C40.9183 39.7998 40.5492 39.9593 40.2666 40.2783C39.9886 40.5973 39.8109 41.0417 39.7334 41.6113H42.8984V41.4883C42.862 40.9323 42.7139 40.513 42.4541 40.2305C42.1943 39.9434 41.8343 39.7998 41.374 39.7998Z" fill="white"/>
<path d="M39.6004 24.8474C39.5235 24.6783 39.462 24.4938 39.3621 24.3324C39.024 23.7944 38.5167 23.5946 37.8942 23.6023C36.603 23.61 35.3041 23.6023 34.013 23.6023C33.8823 23.6023 33.7517 23.6023 33.5903 23.6023C33.5903 23.4102 33.5903 23.2641 33.5903 23.1181C33.5749 15.7707 33.5672 8.42333 33.5518 1.06825C33.5518 0.891487 33.5518 0.707033 33.5134 0.530266C33.4596 0.23053 33.1829 0.0230217 32.8832 0.0230217C32.5758 0.0230217 32.2914 0.25359 32.2376 0.561008C32.2146 0.707035 32.2146 0.85306 32.2146 0.999086C32.2222 9.11503 32.2299 17.231 32.2376 25.3392C32.2376 26.0694 32.276 26.7764 32.7064 27.4605C32.5527 27.4681 32.4298 27.4758 32.3145 27.4758C25.7433 27.4758 19.1645 27.4758 12.5933 27.4758C11.3867 27.4758 10.7719 26.861 10.7719 25.639C10.7719 17.4539 10.7719 9.27643 10.7719 1.09131C10.7719 0.922232 10.7719 0.753149 10.7488 0.584064C10.7027 0.245903 10.426 0.0153351 10.1032 0.0153351C9.78042 0.0153351 9.50374 0.253586 9.45762 0.591751C9.43457 0.745462 9.44225 0.90686 9.44225 1.06057C9.44225 8.42333 9.44225 15.7784 9.44225 23.1412C9.44225 23.5946 9.44225 23.5946 8.9888 23.5946C8.22025 23.5946 7.45938 23.5869 6.69082 23.5946C5.61484 23.6023 5 24.2171 5 25.3008C5 27.0915 5 28.8823 5 30.673C5 31.9104 5.26899 32.287 6.42183 32.6636C17.0048 32.6636 27.5802 32.6636 38.1632 32.6636C38.4322 32.5483 38.755 32.4868 38.9702 32.2947C39.2238 32.0641 39.3852 31.7336 39.585 31.4493C39.6004 29.2589 39.6004 27.0531 39.6004 24.8474ZM33.6133 24.9473C33.7286 24.9396 33.8055 24.9319 33.8823 24.9319C35.1966 24.9319 36.5185 24.9319 37.8327 24.9319C38.2323 24.9319 38.2631 24.9703 38.2631 25.3854C38.2631 27.1607 38.2631 28.9438 38.2631 30.7191C38.2631 31.3186 38.2631 31.3186 37.679 31.3186C27.4418 31.3186 17.197 31.3186 6.95982 31.3186C6.89065 31.3186 6.82148 31.3109 6.75999 31.3186C6.491 31.3417 6.37571 31.2341 6.37571 30.9497C6.3834 29.0667 6.3834 27.1915 6.37571 25.3085C6.37571 25.0011 6.50637 24.9165 6.78305 24.9242C7.6054 24.9319 8.42776 24.9242 9.25011 24.9319C9.32697 24.9319 9.40382 24.955 9.49605 24.9626C9.48068 25.8311 9.42688 26.6919 9.98024 27.4835C9.78042 27.4835 9.67282 27.4835 9.55753 27.4835C9.23474 27.4835 8.90426 27.4681 8.58147 27.4989C8.21256 27.5296 7.96662 27.814 7.96662 28.1445C7.95894 28.4826 8.22025 28.767 8.59684 28.8131C8.70444 28.8285 8.81972 28.8208 8.935 28.8208C17.8118 28.8208 26.6963 28.8208 35.5731 28.8208C35.65 28.8208 35.7345 28.8208 35.8114 28.8208C36.2418 28.7977 36.5185 28.5441 36.5261 28.1675C36.5338 27.7756 36.2572 27.5066 35.8037 27.4835C35.5885 27.4758 35.3733 27.4835 35.1658 27.4758C34.3588 27.4451 33.7286 26.884 33.6441 26.0847C33.5749 25.7158 33.6133 25.3469 33.6133 24.9473Z" fill="white"/>
<path d="M18.1421 16.1163C16.9278 16.1163 15.7135 16.1163 14.4992 16.1163C14.0227 16.1163 13.746 16.3469 13.7229 16.7312C13.6999 17.0693 13.9074 17.346 14.2379 17.4152C14.3762 17.4459 14.5299 17.4536 14.6759 17.4536C16.9816 17.4536 19.2873 17.4536 21.5929 17.4536C21.739 17.4536 21.885 17.4459 22.031 17.4152C22.3461 17.3537 22.569 17.077 22.569 16.7773C22.569 16.4622 22.3154 16.1701 21.9926 16.1317C21.7236 16.1086 21.4546 16.1163 21.1856 16.1163C20.1711 16.1163 19.1566 16.1163 18.1421 16.1163Z" fill="white"/>
<path d="M18.1426 12.2125C16.9743 12.2125 15.8061 12.2125 14.6379 12.2125C14.515 12.2125 14.392 12.2125 14.269 12.2279C13.9462 12.2817 13.731 12.543 13.7234 12.8658C13.7157 13.1963 13.9155 13.4422 14.246 13.5114C14.3843 13.5421 14.538 13.5498 14.6841 13.5498C16.9897 13.5498 19.2954 13.5498 21.6011 13.5498C21.7471 13.5498 21.8931 13.5421 22.0391 13.5114C22.3619 13.4499 22.5771 13.1809 22.5771 12.8735C22.5771 12.5584 22.3235 12.274 22.0007 12.2279C21.8931 12.2125 21.7778 12.2125 21.6625 12.2125C20.4866 12.2125 19.3184 12.2125 18.1426 12.2125Z" fill="white"/>
<path d="M18.1422 21.3506C19.3104 21.3506 20.4786 21.3506 21.6468 21.3506C21.7852 21.3506 21.9158 21.3506 22.0465 21.3275C22.3385 21.2737 22.5614 20.9894 22.5691 20.6973C22.5768 20.4053 22.3616 20.1209 22.0695 20.0517C21.9312 20.021 21.7775 20.0133 21.6315 20.0133C19.3027 20.0133 16.974 20.0133 14.6453 20.0133C14.5531 20.0133 14.4685 20.0133 14.3763 20.021C13.9613 20.0671 13.7153 20.3207 13.7153 20.6896C13.7153 21.0739 13.9843 21.3429 14.4224 21.3429C15.6675 21.3506 16.9048 21.3506 18.1422 21.3506Z" fill="white"/>
<path d="M26.689 21.3424C27.3192 21.3424 27.9494 21.3501 28.5719 21.3424C28.8717 21.3347 29.1176 21.1656 29.1483 20.8736C29.1714 20.6584 29.0868 20.3894 28.9639 20.2126C28.8717 20.0897 28.6257 20.0282 28.4489 20.0282C27.2577 20.0128 26.0664 20.0128 24.8828 20.0205C24.4294 20.0282 24.145 20.2972 24.1374 20.6815C24.1297 21.0734 24.4294 21.3424 24.9059 21.3501C25.4977 21.3578 26.0972 21.3501 26.689 21.3501C26.689 21.3424 26.689 21.3424 26.689 21.3424Z" fill="white"/>
<path d="M26.65 12.2126C26.0659 12.2126 25.4818 12.2049 24.8977 12.2126C24.4442 12.2203 24.1522 12.4739 24.1368 12.8582C24.1214 13.2348 24.4135 13.5422 24.8516 13.5422C26.0659 13.5576 27.2725 13.5576 28.4868 13.5422C28.9249 13.5345 29.2093 13.2271 29.1939 12.8505C29.1785 12.4662 28.8865 12.2203 28.4253 12.2126C27.8412 12.2049 27.2418 12.2126 26.65 12.2126Z" fill="white"/>
<path d="M26.6885 16.1164C26.0968 16.1164 25.4973 16.1087 24.9055 16.1164C24.4444 16.1241 24.16 16.3623 24.1446 16.7543C24.1293 17.1463 24.4213 17.446 24.8901 17.446C26.0814 17.4614 27.2726 17.4614 28.4562 17.446C28.925 17.4383 29.2171 17.1463 29.2017 16.7543C29.1863 16.37 28.902 16.1241 28.4408 16.1164C27.8567 16.1164 27.2726 16.1164 26.6885 16.1164Z" fill="white"/>
<path d="M25.6514 1.34522C25.9358 1.34522 26.2125 1.3529 26.4968 1.34522C26.8734 1.32985 27.1501 1.06854 27.1655 0.715005C27.1885 0.37684 26.9349 0.0617313 26.5583 0.0386747C25.9512 0.00793242 25.344 0.00793242 24.7445 0.0386747C24.3679 0.0617313 24.122 0.376839 24.145 0.722689C24.1681 1.06854 24.4371 1.32985 24.8137 1.34522C25.0904 1.36059 25.3747 1.34522 25.6514 1.34522Z" fill="white"/>
<path d="M21.4548 1.34531C21.7392 1.34531 22.0158 1.353 22.3002 1.34531C22.6845 1.32994 22.9535 1.07632 22.9765 0.730466C23.0073 0.392301 22.7537 0.0618227 22.3771 0.0464516C21.7622 0.0157094 21.1474 0.0157094 20.5325 0.0464516C20.1713 0.0695082 19.9407 0.376931 19.9484 0.70741C19.9638 1.05326 20.2251 1.31457 20.6094 1.34531C20.6324 1.34531 20.6555 1.34531 20.6786 1.34531C20.9322 1.353 21.1935 1.353 21.4548 1.34531C21.4548 1.353 21.4548 1.353 21.4548 1.34531Z" fill="white"/>
<path d="M13.0928 1.34522C13.3771 1.34522 13.6538 1.3529 13.9382 1.34522C14.3148 1.32216 14.5838 1.06085 14.5992 0.707319C14.6145 0.37684 14.3763 0.0617318 14.0151 0.0463607C13.4002 0.0156184 12.7777 0.0079329 12.1705 0.0463607C11.7862 0.0694174 11.5557 0.384525 11.5787 0.730375C11.6018 1.08391 11.8631 1.32985 12.2551 1.34522C12.5317 1.36059 12.8084 1.34522 13.0928 1.34522Z" fill="white"/>
<path d="M17.2505 -0.000149131C16.9431 0.0152221 16.6203 0.00753736 16.3128 0.0536507C15.967 0.0997641 15.7518 0.38413 15.7595 0.706923C15.7672 1.04509 16.0208 1.32945 16.382 1.34482C16.9738 1.36788 17.5733 1.36019 18.1651 1.34482C18.5186 1.33714 18.7799 1.0374 18.7876 0.706923C18.7953 0.391815 18.5647 0.0997641 18.2265 0.0536507C17.9037 0.00753736 17.581 0.0152221 17.2505 -0.000149131Z" fill="white"/>
<path d="M29.8554 1.34522C30.1398 1.34522 30.4164 1.3529 30.7008 1.34522C31.0851 1.32985 31.3464 1.06854 31.3618 0.715005C31.3771 0.369155 31.1389 0.0617313 30.7546 0.0386747C30.1474 0.00793242 29.5403 0.00793242 28.9408 0.0386747C28.5642 0.0617313 28.3183 0.384524 28.3413 0.722689C28.3644 1.06854 28.6334 1.32985 29.0177 1.34522C29.2943 1.36059 29.5787 1.34522 29.8554 1.34522Z" fill="white"/>
</svg>
