<svg width="48" height="48" viewBox="0 0 48 48" fill="none" xmlns="http://www.w3.org/2000/svg">
<path d="M4.12109 40.7002L2.99316 41.8965V45H1.26367V35.0469H2.99316V39.7158L3.9502 38.5332L6.8623 35.0469H8.9541L5.25586 39.4561L9.16602 45H7.11523L4.12109 40.7002ZM11.7021 45H10.041V37.6035H11.7021V45ZM9.93848 35.6826C9.93848 35.4274 10.0182 35.2155 10.1777 35.0469C10.3418 34.8783 10.5742 34.7939 10.875 34.7939C11.1758 34.7939 11.4082 34.8783 11.5723 35.0469C11.7363 35.2155 11.8184 35.4274 11.8184 35.6826C11.8184 35.9333 11.7363 36.1429 11.5723 36.3115C11.4082 36.4756 11.1758 36.5576 10.875 36.5576C10.5742 36.5576 10.3418 36.4756 10.1777 36.3115C10.0182 36.1429 9.93848 35.9333 9.93848 35.6826ZM15.5986 35.8057V37.6035H16.9043V38.834H15.5986V42.9629C15.5986 43.2454 15.6533 43.4505 15.7627 43.5781C15.8766 43.7012 16.0771 43.7627 16.3643 43.7627C16.5557 43.7627 16.7493 43.7399 16.9453 43.6943V44.9795C16.5671 45.0843 16.2025 45.1367 15.8516 45.1367C14.5755 45.1367 13.9375 44.4326 13.9375 43.0244V38.834H12.7207V37.6035H13.9375V35.8057H15.5986ZM21.2178 43.8105C21.6325 43.8105 21.9766 43.6898 22.25 43.4482C22.5234 43.2067 22.6693 42.9082 22.6875 42.5527H24.2529C24.2347 43.013 24.0911 43.4437 23.8223 43.8447C23.5534 44.2412 23.1888 44.5557 22.7285 44.7881C22.2682 45.0205 21.7715 45.1367 21.2383 45.1367C20.2038 45.1367 19.3835 44.8018 18.7773 44.1318C18.1712 43.4619 17.8682 42.5368 17.8682 41.3564V41.1855C17.8682 40.0599 18.1689 39.1598 18.7705 38.4854C19.3721 37.8063 20.1924 37.4668 21.2314 37.4668C22.111 37.4668 22.8265 37.7243 23.3779 38.2393C23.9339 38.7497 24.2256 39.4219 24.2529 40.2559H22.6875C22.6693 39.832 22.5234 39.4834 22.25 39.21C21.9811 38.9365 21.637 38.7998 21.2178 38.7998C20.68 38.7998 20.2653 38.9958 19.9736 39.3877C19.682 39.7751 19.5339 40.3652 19.5293 41.1582V41.4248C19.5293 42.2269 19.6729 42.8262 19.96 43.2227C20.2516 43.6146 20.6709 43.8105 21.2178 43.8105ZM27.1445 38.4102C27.6868 37.7812 28.3727 37.4668 29.2021 37.4668C30.779 37.4668 31.5788 38.3669 31.6016 40.167V45H29.9404V40.2285C29.9404 39.7181 29.8288 39.3581 29.6055 39.1484C29.3867 38.9342 29.0632 38.8271 28.6348 38.8271C27.9694 38.8271 27.4727 39.1234 27.1445 39.7158V45H25.4834V34.5H27.1445V38.4102ZM36.5439 45.1367C35.4912 45.1367 34.6367 44.8063 33.9805 44.1455C33.3288 43.4801 33.0029 42.596 33.0029 41.4932V41.2881C33.0029 40.5498 33.1442 39.8913 33.4268 39.3125C33.7139 38.7292 34.1149 38.2757 34.6299 37.9521C35.1449 37.6286 35.7191 37.4668 36.3525 37.4668C37.3597 37.4668 38.1367 37.7881 38.6836 38.4307C39.235 39.0732 39.5107 39.9824 39.5107 41.1582V41.8281H34.6777C34.7279 42.4388 34.9307 42.9219 35.2861 43.2773C35.6462 43.6328 36.0973 43.8105 36.6396 43.8105C37.4007 43.8105 38.0205 43.5029 38.499 42.8877L39.3945 43.7422C39.0983 44.1842 38.7018 44.5283 38.2051 44.7744C37.7129 45.016 37.1592 45.1367 36.5439 45.1367ZM36.3457 38.7998C35.89 38.7998 35.5208 38.9593 35.2383 39.2783C34.9603 39.5973 34.7826 40.0417 34.7051 40.6113H37.8701V40.4883C37.8337 39.9323 37.6855 39.513 37.4258 39.2305C37.166 38.9434 36.806 38.7998 36.3457 38.7998ZM42.3477 37.6035L42.3955 38.458C42.9424 37.7972 43.6602 37.4668 44.5488 37.4668C46.0892 37.4668 46.873 38.3486 46.9004 40.1123V45H45.2393V40.208C45.2393 39.7386 45.1367 39.3923 44.9316 39.1689C44.7311 38.9411 44.4007 38.8271 43.9404 38.8271C43.2705 38.8271 42.7715 39.1302 42.4434 39.7363V45H40.7822V37.6035H42.3477Z" fill="white"/>
<path d="M4.12109 40.7002L2.99316 41.8965V45H1.26367V35.0469H2.99316V39.7158L3.9502 38.5332L6.8623 35.0469H8.9541L5.25586 39.4561L9.16602 45H7.11523L4.12109 40.7002ZM11.7021 45H10.041V37.6035H11.7021V45ZM9.93848 35.6826C9.93848 35.4274 10.0182 35.2155 10.1777 35.0469C10.3418 34.8783 10.5742 34.7939 10.875 34.7939C11.1758 34.7939 11.4082 34.8783 11.5723 35.0469C11.7363 35.2155 11.8184 35.4274 11.8184 35.6826C11.8184 35.9333 11.7363 36.1429 11.5723 36.3115C11.4082 36.4756 11.1758 36.5576 10.875 36.5576C10.5742 36.5576 10.3418 36.4756 10.1777 36.3115C10.0182 36.1429 9.93848 35.9333 9.93848 35.6826ZM15.5986 35.8057V37.6035H16.9043V38.834H15.5986V42.9629C15.5986 43.2454 15.6533 43.4505 15.7627 43.5781C15.8766 43.7012 16.0771 43.7627 16.3643 43.7627C16.5557 43.7627 16.7493 43.7399 16.9453 43.6943V44.9795C16.5671 45.0843 16.2025 45.1367 15.8516 45.1367C14.5755 45.1367 13.9375 44.4326 13.9375 43.0244V38.834H12.7207V37.6035H13.9375V35.8057H15.5986ZM21.2178 43.8105C21.6325 43.8105 21.9766 43.6898 22.25 43.4482C22.5234 43.2067 22.6693 42.9082 22.6875 42.5527H24.2529C24.2347 43.013 24.0911 43.4437 23.8223 43.8447C23.5534 44.2412 23.1888 44.5557 22.7285 44.7881C22.2682 45.0205 21.7715 45.1367 21.2383 45.1367C20.2038 45.1367 19.3835 44.8018 18.7773 44.1318C18.1712 43.4619 17.8682 42.5368 17.8682 41.3564V41.1855C17.8682 40.0599 18.1689 39.1598 18.7705 38.4854C19.3721 37.8063 20.1924 37.4668 21.2314 37.4668C22.111 37.4668 22.8265 37.7243 23.3779 38.2393C23.9339 38.7497 24.2256 39.4219 24.2529 40.2559H22.6875C22.6693 39.832 22.5234 39.4834 22.25 39.21C21.9811 38.9365 21.637 38.7998 21.2178 38.7998C20.68 38.7998 20.2653 38.9958 19.9736 39.3877C19.682 39.7751 19.5339 40.3652 19.5293 41.1582V41.4248C19.5293 42.2269 19.6729 42.8262 19.96 43.2227C20.2516 43.6146 20.6709 43.8105 21.2178 43.8105ZM27.1445 38.4102C27.6868 37.7812 28.3727 37.4668 29.2021 37.4668C30.779 37.4668 31.5788 38.3669 31.6016 40.167V45H29.9404V40.2285C29.9404 39.7181 29.8288 39.3581 29.6055 39.1484C29.3867 38.9342 29.0632 38.8271 28.6348 38.8271C27.9694 38.8271 27.4727 39.1234 27.1445 39.7158V45H25.4834V34.5H27.1445V38.4102ZM36.5439 45.1367C35.4912 45.1367 34.6367 44.8063 33.9805 44.1455C33.3288 43.4801 33.0029 42.596 33.0029 41.4932V41.2881C33.0029 40.5498 33.1442 39.8913 33.4268 39.3125C33.7139 38.7292 34.1149 38.2757 34.6299 37.9521C35.1449 37.6286 35.7191 37.4668 36.3525 37.4668C37.3597 37.4668 38.1367 37.7881 38.6836 38.4307C39.235 39.0732 39.5107 39.9824 39.5107 41.1582V41.8281H34.6777C34.7279 42.4388 34.9307 42.9219 35.2861 43.2773C35.6462 43.6328 36.0973 43.8105 36.6396 43.8105C37.4007 43.8105 38.0205 43.5029 38.499 42.8877L39.3945 43.7422C39.0983 44.1842 38.7018 44.5283 38.2051 44.7744C37.7129 45.016 37.1592 45.1367 36.5439 45.1367ZM36.3457 38.7998C35.89 38.7998 35.5208 38.9593 35.2383 39.2783C34.9603 39.5973 34.7826 40.0417 34.7051 40.6113H37.8701V40.4883C37.8337 39.9323 37.6855 39.513 37.4258 39.2305C37.166 38.9434 36.806 38.7998 36.3457 38.7998ZM42.3477 37.6035L42.3955 38.458C42.9424 37.7972 43.6602 37.4668 44.5488 37.4668C46.0892 37.4668 46.873 38.3486 46.9004 40.1123V45H45.2393V40.208C45.2393 39.7386 45.1367 39.3923 44.9316 39.1689C44.7311 38.9411 44.4007 38.8271 43.9404 38.8271C43.2705 38.8271 42.7715 39.1302 42.4434 39.7363V45H40.7822V37.6035H42.3477Z" fill="white"/>
<path d="M23.4068 0C23.781 0 24.1553 0 24.5295 0C24.6211 0.0152748 24.7128 0.0305497 24.8044 0.053462C25.5223 0.213848 26.2555 0.320772 26.9505 0.549894C28.3024 1.00814 29.448 1.81007 30.4027 2.87167C30.5249 3.00914 30.6394 3.05497 30.8304 3.01678C31.5941 2.87931 32.3578 2.87167 33.1216 3.00151C36.1231 3.52085 38.231 5.18581 39.369 8.01165C39.6592 8.72957 39.7509 9.5315 39.9342 10.2952C39.9342 10.7077 39.9342 11.1277 39.9342 11.5401C39.9112 11.6165 39.8883 11.7005 39.8807 11.7769C39.5294 14.45 38.1852 16.4663 35.8711 17.8257C35.6572 17.9479 35.5732 18.0778 35.5732 18.3298C35.5808 21.8354 35.5808 25.341 35.5808 28.8389C35.5808 30.6566 34.313 31.9321 32.5106 31.9397C26.8131 31.9473 21.1156 31.9473 15.418 31.9321C14.9674 31.9321 14.4786 31.8251 14.0662 31.6342C12.8977 31.0843 12.3631 30.1067 12.3631 28.8313C12.3631 25.341 12.3631 21.843 12.3783 18.3527C12.3783 18.0854 12.2943 17.9556 12.0652 17.8257C9.07898 16.1761 7.47513 12.6705 8.15486 9.32529C9.00261 5.17817 12.9359 2.39815 17.0143 3.00151C17.2892 3.03969 17.4496 2.97096 17.6253 2.78002C18.7556 1.56567 20.1227 0.725555 21.7342 0.313134C22.2764 0.168023 22.8416 0.0992865 23.4068 0ZM34.1297 24.6689C34.1297 24.5238 34.1297 24.4092 34.1297 24.2946C34.1297 22.1332 34.145 19.9719 34.1221 17.8105C34.1144 17.2758 34.3207 16.978 34.7942 16.7489C37.2229 15.5803 38.6282 13.1287 38.4601 10.4327C38.2692 7.43885 36.0009 4.92614 33.0299 4.44498C32.5488 4.3686 32.06 4.3686 31.6246 4.33806C31.9301 5.23163 32.2662 6.04884 32.4724 6.89659C32.6251 7.52286 32.6252 8.18731 32.6404 8.8365C32.6481 9.15727 32.3502 9.37111 32.0371 9.40166C31.7239 9.43221 31.4108 9.27183 31.3115 8.98161C31.2504 8.82122 31.2275 8.63792 31.2275 8.46226C31.174 6.85077 30.6241 5.42257 29.6389 4.15476C27.8289 1.86353 24.5142 0.870666 21.7342 1.79479C18.8472 2.75711 16.7928 5.41493 16.7164 8.48517C16.7088 8.66847 16.6782 8.85941 16.6095 9.02743C16.472 9.33293 16.1283 9.47804 15.7999 9.39403C15.4486 9.31002 15.25 8.98924 15.2577 8.55391C15.2882 7.17154 15.6166 5.86554 16.2734 4.64355C16.3116 4.56718 16.3422 4.48317 16.4109 4.33042C15.9068 4.36097 15.4639 4.37624 15.0209 4.4297C11.8285 4.83449 9.28519 7.85127 9.45322 11.0666C9.59069 13.7015 10.8661 15.6185 13.2261 16.7947C13.6462 17.0009 13.8218 17.2835 13.8142 17.7494C13.7989 19.9337 13.7989 22.118 13.7989 24.3023C13.7989 24.4245 13.7989 24.539 13.7989 24.6765C20.5962 24.6689 27.3401 24.6689 34.1297 24.6689ZM13.8371 26.1429C13.8218 26.1964 13.8065 26.2116 13.8065 26.2345C13.8065 27.1052 13.7989 27.9835 13.7989 28.8542C13.8065 29.8547 14.4328 30.4886 15.441 30.4962C21.1232 30.5039 26.8131 30.5039 32.4953 30.4962C33.5035 30.4962 34.1221 29.8547 34.1297 28.8542C34.1374 28.0446 34.1297 27.235 34.1297 26.4255C34.1297 26.3338 34.1144 26.2498 34.1144 26.1582C27.3401 26.1429 20.5962 26.1429 13.8371 26.1429Z" fill="white"/>
<path d="M15.2419 15.4274C15.2266 14.931 15.471 14.5873 15.8911 14.5415C16.2959 14.4956 16.6319 14.7477 16.693 15.2212C16.8381 16.4585 17.5331 17.436 18.1899 18.4289C18.358 18.6886 18.5718 18.9253 18.7322 19.185C18.9613 19.544 18.8849 19.9564 18.5794 20.1855C18.2587 20.4223 17.8462 20.3765 17.5789 20.0404C16.6548 18.8719 15.8223 17.6423 15.4099 16.1911C15.3412 15.9315 15.2953 15.6794 15.2419 15.4274Z" fill="white"/>
<path d="M32.6628 15.5192C32.617 16.1989 32.3268 16.955 31.922 17.6577C31.4714 18.4367 30.952 19.1775 30.4403 19.9183C30.1272 20.369 29.7071 20.4453 29.3406 20.1704C28.9969 19.9107 28.9969 19.483 29.2871 19.0324C29.8446 18.1617 30.4022 17.2834 30.9062 16.3899C31.0819 16.0767 31.1048 15.6796 31.2194 15.3283C31.2805 15.122 31.3339 14.9006 31.4638 14.7402C31.6623 14.5034 31.9449 14.4729 32.2351 14.5874C32.533 14.7096 32.6857 14.9998 32.6628 15.5192Z" fill="white"/>
<path d="M23.2308 17.4056C23.2308 16.7488 23.2155 16.0996 23.2384 15.4428C23.2461 15.2366 23.2995 15.0074 23.3988 14.8241C23.5439 14.5645 23.8112 14.4881 24.1014 14.5492C24.3917 14.6103 24.5826 14.7859 24.6437 15.0762C24.6666 15.1984 24.6819 15.3206 24.6819 15.4428C24.6819 16.764 24.6819 18.0853 24.6819 19.399C24.6819 19.903 24.5062 20.178 24.1473 20.2773C23.7272 20.3918 23.3148 20.1627 23.269 19.735C23.2155 19.2386 23.2308 18.7421 23.2231 18.2457C23.2308 17.9631 23.2308 17.6882 23.2308 17.4056Z" fill="white"/>
</svg>
