<svg width="42" height="58" viewBox="0 0 42 58" fill="none" xmlns="http://www.w3.org/2000/svg">
<path d="M11.2715 50.7002L10.1436 51.8965V55H8.41406V45.0469H10.1436V49.7158L11.1006 48.5332L14.0127 45.0469H16.1045L12.4062 49.4561L16.3164 55H14.2656L11.2715 50.7002ZM24.9707 50.2832C24.9707 51.2585 24.8021 52.1152 24.4648 52.8535C24.1276 53.5872 23.6445 54.1523 23.0156 54.5488C22.3913 54.9408 21.6712 55.1367 20.8555 55.1367C20.0488 55.1367 19.3288 54.9408 18.6953 54.5488C18.0664 54.1523 17.5788 53.5895 17.2324 52.8604C16.8906 52.1312 16.7174 51.2904 16.7129 50.3379V49.7773C16.7129 48.8066 16.8838 47.9499 17.2256 47.207C17.5719 46.4642 18.0573 45.8968 18.6816 45.5049C19.3105 45.1084 20.0306 44.9102 20.8418 44.9102C21.653 44.9102 22.3708 45.1061 22.9951 45.498C23.624 45.8854 24.1094 46.446 24.4512 47.1797C24.793 47.9089 24.9661 48.7588 24.9707 49.7295V50.2832ZM23.2412 49.7637C23.2412 48.6608 23.0316 47.8154 22.6123 47.2275C22.1976 46.6396 21.6074 46.3457 20.8418 46.3457C20.0944 46.3457 19.5088 46.6396 19.085 47.2275C18.6657 47.8109 18.4515 48.638 18.4424 49.709V50.2832C18.4424 51.377 18.6543 52.2223 19.0781 52.8193C19.5065 53.4163 20.099 53.7148 20.8555 53.7148C21.6211 53.7148 22.209 53.4232 22.6191 52.8398C23.0339 52.2565 23.2412 51.4043 23.2412 50.2832V49.7637ZM33.2969 46.4414H30.1934V55H28.4775V46.4414H25.4014V45.0469H33.2969V46.4414Z" fill="white"/>
<path d="M34.4531 10.5082V1.3125H7.54688V10.5082C5.86599 10.5944 4.28226 11.3222 3.12227 12.5417C1.96228 13.7613 1.3145 15.3794 1.3125 17.0625V32.8125H6.89062V30.1875H3.9375V17.0625C3.93867 16.0186 4.35389 15.0177 5.09206 14.2796C5.83023 13.5414 6.83107 13.1262 7.875 13.125H34.125C35.1689 13.1262 36.1698 13.5414 36.9079 14.2796C37.6461 15.0177 38.0613 16.0186 38.0625 17.0625V30.1875H34.4531V32.8125H40.6875V17.0625C40.6855 15.3794 40.0377 13.7613 38.8777 12.5417C37.7177 11.3222 36.134 10.5944 34.4531 10.5082ZM31.8281 10.5H10.1719V3.9375H31.8281V10.5Z" fill="white"/>
<path d="M32.4844 16.4062H35.1094V19.0312H32.4844V16.4062Z" fill="white"/>
<path d="M9.51562 21.6562H6.23438V24.2812H9.51562V40.6875H31.8281V24.2812H35.1094V21.6562H9.51562ZM29.2031 38.0625H12.1406V24.2812H29.2031V38.0625Z" fill="white"/>
</svg>
