<svg width="36" height="56" viewBox="0 0 36 56" fill="none" xmlns="http://www.w3.org/2000/svg">
<path d="M3.57617 42.9512L6.44727 50.5801L9.31152 42.9512H11.5469V52.9043H9.82422V49.623L9.99512 45.2344L7.05566 52.9043H5.81836L2.88574 45.2412L3.05664 49.623V52.9043H1.33398V42.9512H3.57617ZM16.6943 53.041C15.6416 53.041 14.7871 52.7106 14.1309 52.0498C13.4792 51.3844 13.1533 50.5003 13.1533 49.3975V49.1924C13.1533 48.4541 13.2946 47.7956 13.5771 47.2168C13.8643 46.6335 14.2653 46.18 14.7803 45.8564C15.2952 45.5329 15.8695 45.3711 16.5029 45.3711C17.5101 45.3711 18.2871 45.6924 18.834 46.335C19.3854 46.9775 19.6611 47.8867 19.6611 49.0625V49.7324H14.8281C14.8783 50.3431 15.0811 50.8262 15.4365 51.1816C15.7965 51.5371 16.2477 51.7148 16.79 51.7148C17.5511 51.7148 18.1709 51.4072 18.6494 50.792L19.5449 51.6465C19.2487 52.0885 18.8522 52.4326 18.3555 52.6787C17.8633 52.9202 17.3096 53.041 16.6943 53.041ZM16.4961 46.7041C16.0404 46.7041 15.6712 46.8636 15.3887 47.1826C15.1107 47.5016 14.9329 47.946 14.8555 48.5156H18.0205V48.3926C17.984 47.8366 17.8359 47.4173 17.5762 47.1348C17.3164 46.8477 16.9564 46.7041 16.4961 46.7041ZM22.498 45.5078L22.5459 46.3623C23.0928 45.7015 23.8105 45.3711 24.6992 45.3711C26.2396 45.3711 27.0234 46.2529 27.0508 48.0166V52.9043H25.3896V48.1123C25.3896 47.6429 25.2871 47.2965 25.082 47.0732C24.8815 46.8454 24.5511 46.7314 24.0908 46.7314C23.4209 46.7314 22.9219 47.0345 22.5938 47.6406V52.9043H20.9326V45.5078H22.498ZM33.2305 52.1797C32.7428 52.7539 32.0501 53.041 31.1523 53.041C30.3503 53.041 29.7419 52.8063 29.3271 52.3369C28.917 51.8675 28.7119 51.1885 28.7119 50.2998V45.5078H30.373V50.2793C30.373 51.2181 30.7627 51.6875 31.542 51.6875C32.3486 51.6875 32.8932 51.3981 33.1758 50.8193V45.5078H34.8369V52.9043H33.2715L33.2305 52.1797Z" fill="white"/>
<path d="M3.57617 42.9512L6.44727 50.5801L9.31152 42.9512H11.5469V52.9043H9.82422V49.623L9.99512 45.2344L7.05566 52.9043H5.81836L2.88574 45.2412L3.05664 49.623V52.9043H1.33398V42.9512H3.57617ZM16.6943 53.041C15.6416 53.041 14.7871 52.7106 14.1309 52.0498C13.4792 51.3844 13.1533 50.5003 13.1533 49.3975V49.1924C13.1533 48.4541 13.2946 47.7956 13.5771 47.2168C13.8643 46.6335 14.2653 46.18 14.7803 45.8564C15.2952 45.5329 15.8695 45.3711 16.5029 45.3711C17.5101 45.3711 18.2871 45.6924 18.834 46.335C19.3854 46.9775 19.6611 47.8867 19.6611 49.0625V49.7324H14.8281C14.8783 50.3431 15.0811 50.8262 15.4365 51.1816C15.7965 51.5371 16.2477 51.7148 16.79 51.7148C17.5511 51.7148 18.1709 51.4072 18.6494 50.792L19.5449 51.6465C19.2487 52.0885 18.8522 52.4326 18.3555 52.6787C17.8633 52.9202 17.3096 53.041 16.6943 53.041ZM16.4961 46.7041C16.0404 46.7041 15.6712 46.8636 15.3887 47.1826C15.1107 47.5016 14.9329 47.946 14.8555 48.5156H18.0205V48.3926C17.984 47.8366 17.8359 47.4173 17.5762 47.1348C17.3164 46.8477 16.9564 46.7041 16.4961 46.7041ZM22.498 45.5078L22.5459 46.3623C23.0928 45.7015 23.8105 45.3711 24.6992 45.3711C26.2396 45.3711 27.0234 46.2529 27.0508 48.0166V52.9043H25.3896V48.1123C25.3896 47.6429 25.2871 47.2965 25.082 47.0732C24.8815 46.8454 24.5511 46.7314 24.0908 46.7314C23.4209 46.7314 22.9219 47.0345 22.5938 47.6406V52.9043H20.9326V45.5078H22.498ZM33.2305 52.1797C32.7428 52.7539 32.0501 53.041 31.1523 53.041C30.3503 53.041 29.7419 52.8063 29.3271 52.3369C28.917 51.8675 28.7119 51.1885 28.7119 50.2998V45.5078H30.373V50.2793C30.373 51.2181 30.7627 51.6875 31.542 51.6875C32.3486 51.6875 32.8932 51.3981 33.1758 50.8193V45.5078H34.8369V52.9043H33.2715L33.2305 52.1797Z" fill="white"/>
<path d="M33.8588 2.85031C33.8588 14.2516 33.8588 25.6528 33.8588 37.0541C33.8253 37.1463 33.7918 37.2301 33.7666 37.3223C33.49 38.3619 32.8864 39.1331 31.8972 39.5858C31.6121 39.72 31.3019 39.7954 31.0001 39.9044C22.6169 39.9044 14.2336 39.9044 5.85031 39.9044C5.38085 39.7032 4.88624 39.5607 4.45869 39.2924C3.62875 38.7894 3.24312 37.9595 3 37.0541C3 25.6528 3 14.2516 3 2.85031C3.24312 1.92815 3.63713 1.08983 4.48384 0.586829C4.903 0.335331 5.38923 0.192815 5.85031 0C14.2336 0 22.6169 0 31.0001 0C31.0924 0.0335331 31.1762 0.0670662 31.2684 0.0922161C32.3079 0.368864 33.0792 0.980843 33.5319 1.96169C33.6744 2.23833 33.7582 2.54852 33.8588 2.85031ZM32.8528 19.9773C32.8528 14.5282 32.8528 9.07909 32.8528 3.62996C32.8528 1.9533 31.9139 1.00599 30.2373 1.00599C22.3738 1.00599 14.5019 1.00599 6.63834 1.00599C4.9533 1.00599 4.01438 1.94492 4.01438 3.62158C4.01438 14.5031 4.01438 25.3929 4.01438 36.2744C4.01438 37.9511 4.9533 38.8984 6.62996 38.8984C14.4935 38.8984 22.3654 38.8984 30.2289 38.8984C31.9055 38.8984 32.8528 37.9595 32.8528 36.2828C32.8528 30.8505 32.8528 25.4097 32.8528 19.9773Z" fill="white"/>
<path d="M29.2983 4.54335C22.0384 4.54335 14.8036 4.54335 7.53529 4.54335C7.53529 4.72778 7.53529 4.88706 7.53529 5.05473C7.53529 11.4093 7.53529 17.7722 7.53529 24.1267C7.53529 24.7303 7.39277 24.9734 7.03229 24.9734C6.67181 24.9734 6.5293 24.7303 6.5293 24.1267C6.5293 17.529 6.5293 10.9398 6.5293 4.34215C6.5293 3.60442 6.61313 3.51221 7.33409 3.51221C14.7365 3.51221 22.1473 3.51221 29.5498 3.51221C30.2456 3.51221 30.3378 3.60442 30.3378 4.317C30.3378 13.8488 30.3378 23.3722 30.3378 32.904C30.3378 33.5998 30.2456 33.692 29.5414 33.692C22.1641 33.692 14.7868 33.692 7.40954 33.692C6.65505 33.692 6.5293 33.5663 6.5293 32.8201C6.5293 31.0429 6.5293 29.274 6.5293 27.4968C6.5293 27.2117 6.57121 26.9602 6.87301 26.8429C7.22511 26.7087 7.53529 26.9854 7.53529 27.4548C7.53529 29.0309 7.53529 30.6153 7.53529 32.1914C7.53529 32.3423 7.53529 32.4932 7.53529 32.6609C14.812 32.6609 22.0384 32.6609 29.2983 32.6609C29.2983 23.3051 29.2983 13.941 29.2983 4.54335Z" fill="white"/>
<path d="M16.9836 9.28866C16.6399 8.33297 16.7992 7.61201 17.4615 7.12578C18.0483 6.68985 18.8279 6.68985 19.4148 7.12578C20.0687 7.61201 20.2363 8.32458 19.8926 9.28866C21.0411 9.52339 22.1142 9.94256 23.0699 10.6216C24.6208 11.7198 25.6184 13.1785 25.9956 15.048C26.0376 15.2659 26.1298 15.3917 26.3477 15.4923C27.4208 15.9701 27.5633 17.3366 26.6495 18.0743C26.4986 18.2001 26.3561 18.4097 26.331 18.6025C26.1382 19.8264 25.3334 20.5474 24.101 20.5474C20.3202 20.5474 16.5309 20.5474 12.7501 20.5474C11.5093 20.5474 10.7213 19.8348 10.5285 18.6025C10.495 18.4097 10.3692 18.1917 10.2183 18.066C9.29616 17.3366 9.43867 15.9617 10.5117 15.4923C10.7381 15.3917 10.8219 15.2659 10.8722 15.048C11.5848 11.9629 13.5968 10.1941 16.5728 9.39764C16.707 9.35573 16.8411 9.32219 16.9836 9.28866ZM24.998 15.3246C24.6376 12.4659 21.6447 10.1438 18.3752 10.1857C14.9633 10.2192 12.2555 12.5833 11.8614 15.3246C16.2375 15.3246 20.6052 15.3246 24.998 15.3246ZM11.5596 18.3594C11.5848 19.1055 11.9872 19.5246 12.6579 19.533C16.5142 19.5414 20.3705 19.533 24.2268 19.533C24.2938 19.533 24.3693 19.533 24.4364 19.5163C24.998 19.4073 25.3417 18.9378 25.2747 18.3594C25.1238 18.3594 24.9729 18.3594 24.822 18.3594C21.913 18.3594 19.0124 18.3594 16.1034 18.3594C15.9609 18.3594 15.7848 18.4097 15.6926 18.3426C15.5249 18.2169 15.2902 18.0157 15.2902 17.8564C15.2902 17.6887 15.5333 17.5043 15.701 17.3785C15.7848 17.3198 15.9441 17.3618 16.0698 17.3618C19.1884 17.3618 22.2986 17.3618 25.4172 17.3618C25.5597 17.3618 25.7358 17.4037 25.828 17.3366C25.9956 17.2109 26.222 17.0097 26.2136 16.842C26.2136 16.6743 25.9705 16.4983 25.8028 16.3725C25.719 16.3138 25.5597 16.3558 25.434 16.3558C23.5729 16.3558 21.7202 16.3558 19.8591 16.3558C17.0088 16.3558 14.1585 16.3558 11.3081 16.3558C10.8554 16.3558 10.6375 16.5318 10.6375 16.8588C10.6375 17.1941 10.8554 17.3534 11.3165 17.3534C11.7944 17.3534 12.2638 17.3534 12.7417 17.3534C13.1776 17.3534 13.4291 17.5462 13.404 17.8648C13.3704 18.2504 13.1105 18.3677 12.7585 18.3594C12.3644 18.351 11.9704 18.3594 11.5596 18.3594ZM17.7884 8.45872C17.7884 8.80243 18.0818 9.09585 18.4255 9.10423C18.7609 9.11261 19.0711 8.8192 19.0878 8.47548C19.1046 8.12339 18.786 7.79644 18.4255 7.80482C18.0818 7.82159 17.7884 8.12339 17.7884 8.45872Z" fill="white"/>
<path d="M21.2501 23.976C19.5651 23.976 17.8717 23.976 16.1866 23.976C16.0609 23.976 15.8932 24.0095 15.8178 23.9508C15.6585 23.8167 15.4489 23.6323 15.4573 23.473C15.4573 23.3137 15.6669 23.1209 15.8345 23.0035C15.9267 22.9365 16.1028 22.9784 16.2453 22.9784C19.5902 22.9784 22.9435 22.9784 26.2885 22.9784C26.4142 22.9784 26.5819 22.9365 26.6573 22.9951C26.825 23.1293 27.0513 23.3221 27.0513 23.4814C27.0513 23.649 26.8166 23.8335 26.6489 23.9592C26.5651 24.0179 26.4058 23.976 26.2801 23.976C24.595 23.976 22.9184 23.976 21.2501 23.976Z" fill="white"/>
<path d="M21.2839 25.9881C22.9438 25.9881 24.6037 25.9881 26.2636 25.9881C26.3894 25.9881 26.5486 25.9462 26.6325 26.0049C26.8001 26.1307 27.0349 26.3151 27.0433 26.4827C27.0433 26.6504 26.8085 26.8265 26.6492 26.9774C26.5989 27.0277 26.4648 26.9941 26.3642 26.9941C22.9606 26.9941 19.557 26.9941 16.1534 26.9941C16.0695 26.9941 15.9857 27.0025 15.9019 26.9857C15.6168 26.9522 15.4324 26.7845 15.4324 26.4911C15.424 26.1977 15.6001 26.0301 15.8935 25.9881C16.0025 25.9714 16.1198 25.9798 16.2288 25.9798C17.9139 25.9881 19.5989 25.9881 21.2839 25.9881Z" fill="white"/>
<path d="M21.2336 29.0061C22.9187 29.0061 24.6121 29.0061 26.2971 29.0061C26.4229 29.0061 26.5822 28.9642 26.666 29.0313C26.8253 29.157 27.0516 29.3414 27.0432 29.4923C27.0349 29.6684 26.8169 29.8528 26.6576 29.9953C26.5822 30.0624 26.4145 30.0121 26.2887 30.0121C22.9271 30.0121 19.5654 30.0121 16.2037 30.0121C16.1031 30.0121 16.0108 30.0205 15.9102 30.0037C15.6168 29.9786 15.4324 29.8109 15.4324 29.5259C15.424 29.2157 15.6085 29.0396 15.9186 29.0145C16.1114 28.9977 16.3126 29.0061 16.5055 29.0061C18.0815 29.0061 19.6576 29.0061 21.2336 29.0061Z" fill="white"/>
<path d="M9.79896 11.0578C9.79896 11.9632 9.79896 12.8686 9.79896 13.7824C9.79896 14.2183 9.61453 14.4531 9.2792 14.4279C8.88519 14.3944 8.79297 14.1261 8.79297 13.7824C8.79297 11.9548 8.79297 10.1273 8.79297 8.29973C8.79297 7.89733 8.98578 7.6626 9.29597 7.6626C9.60615 7.6626 9.79896 7.89733 9.79896 8.29973C9.79896 9.22189 9.79896 10.144 9.79896 11.0578Z" fill="white"/>
<path d="M18.4672 35.4615C18.8864 35.4615 19.3055 35.4615 19.7247 35.4615C20.0433 35.4615 20.278 35.5956 20.2864 35.9394C20.2948 36.3082 20.0684 36.4591 19.7247 36.4591C18.8612 36.4591 17.9977 36.4675 17.1343 36.4591C16.8073 36.4591 16.5894 36.2998 16.5894 35.9561C16.5894 35.6124 16.8073 35.4615 17.1343 35.4531C17.5702 35.4615 18.0229 35.4615 18.4672 35.4615Z" fill="white"/>
<path d="M13.1686 23.976C12.9339 23.976 12.6992 23.9844 12.456 23.976C12.1459 23.9593 11.9614 23.7916 11.9614 23.473C11.9614 23.1545 12.1542 22.9868 12.4644 22.9784C12.9507 22.97 13.4369 22.9617 13.9231 22.9784C14.2333 22.9868 14.4177 23.1629 14.4177 23.4814C14.4177 23.8 14.2249 23.9593 13.9147 23.976C13.6632 23.9844 13.4117 23.976 13.1686 23.976Z" fill="white"/>
<path d="M13.1939 26.994C12.9424 26.994 12.6909 27.0108 12.4394 26.994C12.1292 26.9688 11.9531 26.8012 11.9531 26.4826C11.9615 26.1892 12.1376 26.0131 12.4226 26.0048C12.9256 25.988 13.4202 25.988 13.9232 26.0048C14.2334 26.0131 14.4094 26.1976 14.4094 26.5161C14.401 26.8179 14.225 26.9772 13.94 26.994C13.6968 27.0024 13.4453 26.994 13.1939 26.994Z" fill="white"/>
<path d="M13.1939 30.0121C12.9424 30.0121 12.6909 30.0288 12.4394 30.0121C12.1292 29.9869 11.9531 29.8192 11.9531 29.5007C11.9615 29.2073 12.1376 29.0312 12.4226 29.0228C12.9256 29.0061 13.4202 29.0061 13.9232 29.0228C14.2334 29.0312 14.4094 29.2156 14.4094 29.5342C14.401 29.836 14.225 29.9953 13.94 30.0121C13.6968 30.0204 13.4453 30.0121 13.1939 30.0121Z" fill="white"/>
<path d="M9.79879 6.43855C9.7904 6.84934 9.60597 7.0673 9.28741 7.05892C8.94369 7.05053 8.78441 6.8158 8.79279 6.32957C8.80118 5.92717 8.99399 5.70083 9.30417 5.70921C9.64789 5.71759 9.80717 5.96071 9.79879 6.43855Z" fill="white"/>
<path d="M10.3853 23.9762C10.0164 23.9762 9.79004 23.7834 9.79004 23.4732C9.79004 23.163 10.0164 22.9702 10.3769 22.9702C10.7457 22.9702 10.9721 23.163 10.9721 23.4732C10.9721 23.7834 10.7541 23.9762 10.3853 23.9762Z" fill="white"/>
<path d="M10.3942 25.9883C10.7631 25.9883 10.981 26.1895 10.981 26.4997C10.9726 26.8098 10.7463 26.9943 10.3858 26.9943C10.0169 26.9943 9.79898 26.7931 9.80736 26.4829C9.79898 26.1727 10.0253 25.9883 10.3942 25.9883Z" fill="white"/>
<path d="M10.3943 30.0123C10.0254 30.0123 9.79905 29.8279 9.79905 29.5177C9.79067 29.2075 10.017 29.0063 10.3859 29.0063C10.7547 29.0063 10.9811 29.1908 10.9811 29.501C10.9811 29.8111 10.7547 30.0123 10.3943 30.0123Z" fill="white"/>
</svg>
