<svg width="35" height="60" viewBox="0 0 35 60" fill="none" xmlns="http://www.w3.org/2000/svg">
<path d="M9.05762 52.2832C9.05762 53.2585 8.889 54.1152 8.55176 54.8535C8.21452 55.5872 7.73145 56.1523 7.10254 56.5488C6.47819 56.9408 5.75814 57.1367 4.94238 57.1367C4.13574 57.1367 3.41569 56.9408 2.78223 56.5488C2.15332 56.1523 1.66569 55.5895 1.31934 54.8604C0.977539 54.1312 0.804362 53.2904 0.799805 52.3379V51.7773C0.799805 50.8066 0.970703 49.9499 1.3125 49.207C1.65885 48.4642 2.14421 47.8968 2.76855 47.5049C3.39746 47.1084 4.11751 46.9102 4.92871 46.9102C5.73991 46.9102 6.45768 47.1061 7.08203 47.498C7.71094 47.8854 8.19629 48.446 8.53809 49.1797C8.87988 49.9089 9.05306 50.7588 9.05762 51.7295V52.2832ZM7.32812 51.7637C7.32812 50.6608 7.11849 49.8154 6.69922 49.2275C6.28451 48.6396 5.69434 48.3457 4.92871 48.3457C4.18132 48.3457 3.5957 48.6396 3.17188 49.2275C2.7526 49.8109 2.53841 50.638 2.5293 51.709V52.2832C2.5293 53.377 2.74121 54.2223 3.16504 54.8193C3.59342 55.4163 4.18587 55.7148 4.94238 55.7148C5.70801 55.7148 6.2959 55.4232 6.70605 54.8398C7.12077 54.2565 7.32812 53.4043 7.32812 52.2832V51.7637ZM14.4922 51.1211C14.2734 51.0846 14.0479 51.0664 13.8154 51.0664C13.0544 51.0664 12.5417 51.3581 12.2773 51.9414V57H10.6162V49.6035H12.2021L12.2432 50.4307C12.6442 49.7881 13.2002 49.4668 13.9111 49.4668C14.1481 49.4668 14.3441 49.4987 14.499 49.5625L14.4922 51.1211ZM15.0938 53.2471C15.0938 52.1077 15.3581 51.194 15.8867 50.5059C16.4154 49.8132 17.124 49.4668 18.0127 49.4668C18.7965 49.4668 19.43 49.7402 19.9131 50.2871V46.5H21.5742V57H20.0703L19.9883 56.2344C19.4915 56.8359 18.8285 57.1367 17.999 57.1367C17.1331 57.1367 16.4313 56.7881 15.8936 56.0908C15.3604 55.3936 15.0938 54.4456 15.0938 53.2471ZM16.7549 53.3906C16.7549 54.1426 16.8984 54.7305 17.1855 55.1543C17.4772 55.5736 17.8896 55.7832 18.4229 55.7832C19.1019 55.7832 19.5986 55.4801 19.9131 54.874V51.7158C19.6077 51.1234 19.1156 50.8271 18.4365 50.8271C17.8988 50.8271 17.484 51.0413 17.1924 51.4697C16.9007 51.8936 16.7549 52.5339 16.7549 53.3906ZM26.5645 57.1367C25.5117 57.1367 24.6572 56.8063 24.001 56.1455C23.3493 55.4801 23.0234 54.596 23.0234 53.4932V53.2881C23.0234 52.5498 23.1647 51.8913 23.4473 51.3125C23.7344 50.7292 24.1354 50.2757 24.6504 49.9521C25.1654 49.6286 25.7396 49.4668 26.373 49.4668C27.3802 49.4668 28.1572 49.7881 28.7041 50.4307C29.2555 51.0732 29.5312 51.9824 29.5312 53.1582V53.8281H24.6982C24.7484 54.4388 24.9512 54.9219 25.3066 55.2773C25.6667 55.6328 26.1178 55.8105 26.6602 55.8105C27.4212 55.8105 28.041 55.5029 28.5195 54.8877L29.415 55.7422C29.1188 56.1842 28.7223 56.5283 28.2256 56.7744C27.7334 57.016 27.1797 57.1367 26.5645 57.1367ZM26.3662 50.7998C25.9105 50.7998 25.5413 50.9593 25.2588 51.2783C24.9808 51.5973 24.8031 52.0417 24.7256 52.6113H27.8906V52.4883C27.8542 51.9323 27.7061 51.513 27.4463 51.2305C27.1865 50.9434 26.8265 50.7998 26.3662 50.7998ZM34.6992 51.1211C34.4805 51.0846 34.2549 51.0664 34.0225 51.0664C33.2614 51.0664 32.7487 51.3581 32.4844 51.9414V57H30.8232V49.6035H32.4092L32.4502 50.4307C32.8512 49.7881 33.4072 49.4668 34.1182 49.4668C34.3551 49.4668 34.5511 49.4987 34.7061 49.5625L34.6992 51.1211Z" fill="white"/>
<path d="M28.4844 17.4062H31.1094V20.0312H28.4844V17.4062Z" fill="white"/>
<path d="M28.786 0.0223596C28.8531 0.0558996 28.9202 0.0894397 28.9984 0.12298C30.2506 0.514279 30.9885 1.48694 30.9885 2.795C30.9996 4.75149 30.9885 6.69681 30.9885 8.65331C30.9885 16.1327 30.9885 25.8593 30.9885 33.3387C30.9885 33.5288 30.9885 33.7188 30.9885 33.9312C30.4965 33.9312 30.0382 33.9312 29.5239 33.9312C29.5239 33.7076 29.5239 33.5064 29.5239 33.3052C29.5239 23.9922 29.5239 12.4545 29.5127 3.14157C29.5127 2.82854 29.4792 2.49314 29.3785 2.20246C29.2332 1.79998 28.8978 1.53166 28.473 1.52048C26.8742 1.49812 25.2867 1.5093 23.6209 1.5093C23.6209 1.99004 23.6209 2.44842 23.6209 2.89562C23.6097 4.52789 22.5476 5.66825 20.9153 5.69061C18.2321 5.72415 15.5489 5.72415 12.8657 5.69061C11.2334 5.66825 10.1825 4.51671 10.1713 2.88443C10.1713 2.43724 10.1713 1.99004 10.1713 1.52048C10.0148 1.49812 9.89184 1.47576 9.76886 1.47576C8.47198 1.47576 7.1751 1.46458 5.8894 1.47576C4.95028 1.48694 4.48073 1.9565 4.46955 2.89562C4.45837 3.94653 4.46955 5.00863 4.46955 6.05955C4.46955 6.22725 4.46955 6.40613 4.46955 6.60737C3.96645 6.60737 3.50807 6.60737 3.00497 6.60737C3.00497 5.72415 3.00497 4.85211 3.00497 3.96889C3.00497 3.52169 2.99379 3.07449 3.00497 2.6273C3.03851 1.52048 3.73167 0.558999 4.7714 0.1677C4.91674 0.1118 5.06209 0.0558999 5.20742 0C13.0558 0.02236 20.9265 0.0223596 28.786 0.0223596ZM11.6359 1.53166C11.6359 2.07948 11.6024 2.59376 11.6471 3.09685C11.6918 3.77883 12.1949 4.23721 12.8881 4.24839C15.5713 4.25957 18.2545 4.25957 20.9377 4.24839C21.5861 4.24839 22.0892 3.81237 22.1451 3.17511C22.1898 2.63848 22.1563 2.10184 22.1563 1.53166C18.6458 1.53166 15.1688 1.53166 11.6359 1.53166Z" fill="white"/>
<path d="M8.60621 18.3797C9.36645 14.0084 11.8708 11.5041 16.1974 10.755C16.2086 10.509 16.2198 10.2519 16.2421 9.9165C16.4881 9.9165 16.7229 9.9165 16.9577 9.9165C17.1813 9.9165 17.4049 9.9165 17.5949 9.9165C17.6396 9.98358 17.6732 10.0059 17.6732 10.0395C17.7403 10.755 17.7403 10.755 18.4781 10.9115C22.1899 11.6606 24.7501 14.4444 25.2644 18.3462C25.5774 18.3462 25.9016 18.3462 26.2482 18.3462C26.2482 18.8717 26.2482 19.33 26.2482 19.822C20.0657 19.822 13.8943 19.822 7.68945 19.822C7.68945 19.3412 7.68945 18.894 7.68945 18.3797C8.01367 18.3797 8.30435 18.3797 8.60621 18.3797ZM23.7551 18.335C23.4756 14.8581 20.1216 12.0295 16.6446 12.2419C12.4409 12.4991 10.2161 16.099 10.2161 18.335C14.7217 18.335 19.2384 18.335 23.7551 18.335Z" fill="white"/>
<path d="M25.566 33.9761C25.566 34.468 25.566 34.904 25.566 35.3848C23.1288 35.3848 10.6407 35.3848 8.18115 35.3848C8.18115 34.9152 8.18115 34.4568 8.18115 33.9761C10.6184 33.9761 23.0952 33.9761 25.566 33.9761Z" fill="white"/>
<path d="M25.566 36.5811C25.566 37.073 25.566 37.509 25.566 37.9897C23.1288 37.9897 10.6407 37.9897 8.18115 37.9897C8.18115 37.5202 8.18115 37.0618 8.18115 36.5811C10.6184 36.5811 23.0952 36.5811 25.566 36.5811Z" fill="white"/>
<path d="M8.18115 29.4815C8.18115 29.0007 8.18115 28.5647 8.18115 28.084C10.6184 28.084 23.0952 28.084 25.5548 28.084C25.5548 28.5312 25.5548 28.9896 25.5548 29.4815C23.1288 29.4815 10.6407 29.4815 8.18115 29.4815Z" fill="white"/>
<path d="M25.5661 31.0361C25.5661 31.5057 25.5661 31.9529 25.5661 32.4336C23.1288 32.4336 10.652 32.4336 8.19238 32.4336C8.19238 31.9864 8.19238 31.5281 8.19238 31.0361C10.6073 31.0361 23.0953 31.0361 25.5661 31.0361Z" fill="white"/>
<path d="M16.3647 24.4057C16.3647 23.9026 16.3647 23.4666 16.3647 22.9971C16.8455 22.9971 17.2927 22.9971 17.7958 22.9971C17.7958 23.4554 17.7958 23.9138 17.7958 24.4057C17.315 24.4057 16.8678 24.4057 16.3647 24.4057Z" fill="white"/>
<path d="M14.8448 24.4057C14.3864 24.4057 13.928 24.4057 13.4473 24.4057C13.4473 23.9362 13.4473 23.4778 13.4473 22.9971C13.9056 22.9971 14.3528 22.9971 14.8448 22.9971C14.8448 23.4443 14.8448 23.9138 14.8448 24.4057Z" fill="white"/>
<path d="M20.7368 22.9971C20.7368 23.4554 20.7368 23.9138 20.7368 24.3946C20.2672 24.3946 19.8089 24.3946 19.3281 24.3946C19.3281 23.9362 19.3281 23.489 19.3281 22.9971C19.7865 22.9971 20.2449 22.9971 20.7368 22.9971Z" fill="white"/>
<path d="M27.3659 44.273C30.5969 44.273 24.884 44.273 28.1038 44.273C29.9485 44.273 31.0553 43.1662 31.0553 41.3215C31.0553 30.4434 31.0553 47.5152 31.0553 36.6371C31.0553 36.4806 31.0553 35.206 31.0553 35.0048C30.5634 35.0048 30.105 35.0048 29.5907 35.0048C29.5907 35.2284 29.5907 36.5588 29.5907 36.7601C29.5907 47.5264 29.5907 30.3428 29.5907 41.0979C29.5907 42.4171 29.1994 42.7972 27.869 42.7972C24.7386 42.7972 30.5522 42.7972 27.4106 42.7972H26.7175C26.4492 42.7972 15.8617 42.7972 15.6717 42.7972C12.5413 42.7972 9.41088 42.7972 6.2693 42.7972C4.93888 42.7972 4.54758 42.4059 4.54758 41.0979C4.54758 30.3316 4.54758 19.5653 4.54758 8.81011C4.54758 8.60887 4.54758 8.39645 4.54758 8.17285C4.03331 8.17285 3.57493 8.17285 3.08301 8.17285C3.08301 8.37409 3.08301 8.53061 3.08301 8.68713C3.08301 19.5653 3.08301 30.4434 3.08301 41.3215C3.08301 43.1662 4.18983 44.273 6.03452 44.273C9.26554 44.273 12.4966 44.273 15.7164 44.273C15.9064 44.273 26.4827 44.273 26.7063 44.273H27.3659Z" fill="white"/>
</svg>
