<svg width="40" height="49" viewBox="0 0 40 49" fill="none" xmlns="http://www.w3.org/2000/svg">
<path d="M9.24316 36.6489H6.13965V45.2075H4.42383V36.6489H1.34766V35.2544H9.24316V36.6489ZM13.666 45.2075C13.5931 45.0662 13.5293 44.8361 13.4746 44.5171C12.946 45.0685 12.2988 45.3442 11.5332 45.3442C10.7904 45.3442 10.1842 45.1323 9.71484 44.7085C9.24544 44.2847 9.01074 43.7606 9.01074 43.1362C9.01074 42.3478 9.30241 41.744 9.88574 41.3247C10.4736 40.9009 11.3122 40.689 12.4014 40.689H13.4199V40.2036C13.4199 39.8208 13.3128 39.5155 13.0986 39.2876C12.8844 39.0552 12.5586 38.939 12.1211 38.939C11.7428 38.939 11.4329 39.0347 11.1914 39.2261C10.9499 39.4129 10.8291 39.6522 10.8291 39.9438H9.16797C9.16797 39.5382 9.30241 39.16 9.57129 38.8091C9.84017 38.4536 10.2048 38.1756 10.665 37.9751C11.1299 37.7746 11.6471 37.6743 12.2168 37.6743C13.0827 37.6743 13.7731 37.8931 14.2881 38.3306C14.8031 38.7635 15.0674 39.3742 15.0811 40.1626V43.4985C15.0811 44.1639 15.1745 44.6948 15.3613 45.0913V45.2075H13.666ZM11.8408 44.0112C12.1689 44.0112 12.4766 43.9315 12.7637 43.772C13.0553 43.6125 13.2741 43.3983 13.4199 43.1294V41.7349H12.5244C11.9092 41.7349 11.4466 41.842 11.1367 42.0562C10.8268 42.2703 10.6719 42.5734 10.6719 42.9653C10.6719 43.2843 10.7767 43.5396 10.9863 43.731C11.2005 43.9178 11.4854 44.0112 11.8408 44.0112ZM23.3115 41.5845C23.3115 42.7329 23.054 43.6466 22.5391 44.3257C22.0286 45.0047 21.3245 45.3442 20.4268 45.3442C19.5609 45.3442 18.8864 45.0321 18.4033 44.4077L18.3213 45.2075H16.8174V34.7075H18.4785V38.522C18.957 37.9569 19.6019 37.6743 20.4131 37.6743C21.3154 37.6743 22.0241 38.0093 22.5391 38.6792C23.054 39.3491 23.3115 40.2856 23.3115 41.4888V41.5845ZM21.6504 41.4409C21.6504 40.6388 21.5091 40.0373 21.2266 39.6362C20.944 39.2352 20.5339 39.0347 19.9961 39.0347C19.276 39.0347 18.7702 39.3491 18.4785 39.978V43.0269C18.7747 43.6694 19.2852 43.9907 20.0098 43.9907C20.5293 43.9907 20.9303 43.797 21.2129 43.4097C21.4954 43.0223 21.6413 42.4367 21.6504 41.6528V41.4409ZM26.4766 45.2075H24.8154V34.7075H26.4766V45.2075ZM31.5488 45.3442C30.4961 45.3442 29.6416 45.0138 28.9854 44.353C28.3337 43.6877 28.0078 42.8035 28.0078 41.7007V41.4956C28.0078 40.7573 28.1491 40.0988 28.4316 39.52C28.7188 38.9367 29.1198 38.4832 29.6348 38.1597C30.1497 37.8361 30.724 37.6743 31.3574 37.6743C32.3646 37.6743 33.1416 37.9956 33.6885 38.6382C34.2399 39.2808 34.5156 40.1899 34.5156 41.3657V42.0356H29.6826C29.7327 42.6463 29.9355 43.1294 30.291 43.4849C30.651 43.8403 31.1022 44.0181 31.6445 44.0181C32.4056 44.0181 33.0254 43.7104 33.5039 43.0952L34.3994 43.9497C34.1032 44.3918 33.7067 44.7358 33.21 44.9819C32.7178 45.2235 32.1641 45.3442 31.5488 45.3442ZM31.3506 39.0073C30.8949 39.0073 30.5257 39.1668 30.2432 39.4858C29.9652 39.8049 29.7874 40.2492 29.71 40.8188H32.875V40.6958C32.8385 40.1398 32.6904 39.7205 32.4307 39.438C32.1709 39.1509 31.8109 39.0073 31.3506 39.0073Z" fill="#EA7C69"/>
<path d="M2.78608 31.9073C2.99945 31.8417 3.22924 31.7925 3.4344 31.7022C4.12376 31.4067 4.43561 30.8405 4.5423 30.1265C4.76388 28.6411 4.98545 27.1557 5.23165 25.6785C5.26448 25.4734 5.37937 25.2436 5.52709 25.1041C11.2963 19.5646 17.0738 14.0333 22.8513 8.50206C22.9497 8.40358 23.0564 8.31331 23.1467 8.20662C23.3929 7.91939 23.3847 7.5583 23.1385 7.3121C22.8923 7.0659 22.523 7.04128 22.244 7.29569C21.8008 7.69781 21.3741 8.11635 20.9391 8.52668C20.4796 8.96163 20.02 9.40479 19.5276 9.87257C18.0094 8.41999 16.5076 6.98384 14.9319 5.46561C15.1535 5.46561 15.293 5.46561 15.4243 5.46561C19.4783 5.46561 23.5242 5.46561 27.5783 5.46561C27.7506 5.46561 27.9394 5.4574 28.1035 5.39996C28.4072 5.29327 28.5303 5.04707 28.4974 4.73522C28.4646 4.41516 28.2676 4.22641 27.964 4.17717C27.8163 4.15255 27.6603 4.16896 27.5044 4.16896C19.9461 4.16896 12.396 4.16896 4.83774 4.16896C3.31951 4.16896 2.16238 3.54526 1.43199 2.19117C1.10372 1.58388 1.27606 1.32127 1.97363 1.32127C8.47327 1.32127 14.9647 1.32127 21.4643 1.32127C26.6099 1.32127 31.7555 1.32127 36.901 1.32127C37.0323 1.32127 37.1554 1.31306 37.2867 1.32127C37.7381 1.34589 37.9104 1.6085 37.7135 2.01883C37.0651 3.38933 35.9655 4.11152 34.4636 4.16896C33.4706 4.20179 32.4776 4.17717 31.4846 4.17717C30.8773 4.17717 30.6229 4.47261 30.7132 5.07169C31.6159 11.0051 32.5269 16.9385 33.4296 22.8801C33.446 22.9621 33.4296 23.0442 33.4296 23.1837C33.3147 23.077 33.2244 23.0032 33.1506 22.9293C29.7941 19.7123 26.4376 16.4953 23.0811 13.2783C22.9744 13.1716 22.8595 13.0567 22.7364 12.9829C22.4491 12.8105 22.1619 12.868 21.9403 13.106C21.727 13.3358 21.6941 13.6148 21.8747 13.8774C21.9814 14.0333 22.1291 14.1646 22.2686 14.2959C26.0272 17.8986 29.7941 21.5013 33.5445 25.1123C33.6922 25.2518 33.8071 25.4816 33.8481 25.6867C34.0779 27.0654 34.3241 28.4442 34.4801 29.8393C34.6114 30.98 35.1284 31.7104 36.2855 31.9156C36.3347 31.9156 36.384 31.9156 36.4414 31.9156C36.4743 31.8991 36.5071 31.8745 36.5481 31.8745C37.7381 31.6365 38.2797 30.9636 38.2141 29.7572C38.0828 27.3445 37.9432 24.9235 37.8037 22.5108C37.5822 18.6947 37.3524 14.8868 37.1308 11.0707C37.0651 10.0285 37.0077 8.98625 36.9338 7.94401C36.901 7.50906 36.6302 7.27107 36.2445 7.29569C35.8177 7.32031 35.6208 7.64036 35.6536 8.182C35.8259 11.0133 35.9901 13.8528 36.1542 16.6841C36.2937 19.0722 36.4414 21.4603 36.5809 23.8484C36.6958 25.8427 36.8107 27.8369 36.9256 29.8311C36.9502 30.2988 36.7861 30.5286 36.4414 30.5533C36.105 30.5697 35.908 30.3645 35.8506 29.946C35.7849 29.5192 35.7193 29.0925 35.6536 28.6657C35.1284 25.2354 34.6114 21.7968 34.0861 18.3664C33.5855 15.1002 33.0931 11.8257 32.5925 8.55951C32.4366 7.54189 32.2889 6.53247 32.1248 5.47382C32.9618 5.47382 33.7661 5.49844 34.5621 5.46561C35.9983 5.41637 37.2293 4.88294 38.1402 3.76684C38.5423 3.27444 38.8049 2.66715 39.125 2.1091C39.125 1.87932 39.125 1.64953 39.125 1.41975C38.6326 0.270818 38.2305 0 36.9749 0C25.3625 0 13.7501 0 2.13776 0C1.97363 0 1.80949 1.87712e-07 1.64536 0.00820681C0.381542 0.114893 -0.340641 1.30485 0.159962 2.47019C0.570293 3.43037 1.21862 4.20179 2.12135 4.74343C2.29368 4.85011 2.36754 4.9568 2.35113 5.16196C2.26086 6.52426 2.187 7.87836 2.10493 9.24065C1.90797 12.5151 1.71922 15.7977 1.52226 19.0722C1.38275 21.4849 1.23503 23.8977 1.09552 26.3104C1.02166 27.5168 0.947796 28.7232 0.89856 29.9296C0.857525 30.8159 1.37454 31.538 2.1952 31.7842C2.35113 31.8335 2.51526 31.8663 2.67119 31.8991C2.67939 31.9073 2.73684 31.9073 2.78608 31.9073ZM18.4689 10.882C14.2589 14.9114 9.96688 19.0312 5.58454 23.2247C5.70764 22.4041 5.81432 21.7065 5.92101 21.0089C6.42162 17.7427 6.91401 14.4683 7.41462 11.202C7.56233 10.2337 7.71826 9.26528 7.84136 8.29689C7.91522 7.73064 7.44744 7.35313 6.96325 7.5583C6.66781 7.6814 6.57754 7.94401 6.53651 8.23124C6.32314 9.65099 6.10976 11.0707 5.89639 12.4987C5.01007 18.3172 4.12376 24.1439 3.23745 29.9624C3.17179 30.3809 2.97483 30.5861 2.63836 30.5615C2.3101 30.5368 2.13776 30.3071 2.16238 29.8721C2.24444 28.2964 2.33472 26.7208 2.4332 25.1451C2.62195 21.8789 2.8189 18.6126 3.01587 15.3464C3.18 12.5643 3.33593 9.78229 3.50006 7.00025C3.53288 6.47502 3.56571 5.94159 3.59854 5.47382C4.20583 5.47382 4.75567 5.47382 5.31372 5.47382C7.77571 5.47382 10.2295 5.46561 12.6915 5.48202C12.8884 5.48202 13.1346 5.5805 13.2823 5.72002C14.5872 6.95101 15.8921 8.19021 17.1723 9.44582C17.6319 9.88077 18.0258 10.3814 18.4689 10.882Z" fill="#EA7C69"/>
</svg>
